<svg xmlns="http://www.w3.org/2000/svg" xmlns:xlink="http://www.w3.org/1999/xlink" width="746" height="501.163" viewBox="0 0 746 501.163">
  <defs>
    <clipPath id="clip-path">
      <path id="Path_5932" data-name="Path 5932" d="M289.78-207a13.666,13.666,0,0,1,13.665,13.365l0,.3a13.665,13.665,0,0,1-13.668,13.666H271.523A13.668,13.668,0,0,1,285.192-166.3l0,.3a13.664,13.664,0,0,1-13.672,13.666H259.386a13.666,13.666,0,0,0-13.662,13.666,13.663,13.663,0,0,0,13.662,13.666h32.682a13.662,13.662,0,0,1,13.658,13.365l0,.3a13.662,13.662,0,0,1-13.661,13.666H260.554v.119a13.782,13.782,0,0,0-1.506-.115l-.3,0H224.488a13.667,13.667,0,0,0-13.672,13.666,13.668,13.668,0,0,0,13.672,13.666h34.259a13.816,13.816,0,0,0,1.807-.118v.117h10.068A13.662,13.662,0,0,1,284.28-56.977l0,.3A13.662,13.662,0,0,1,270.622-43.01H243.239A13.664,13.664,0,0,1,256.9-29.646l0,.3a13.661,13.661,0,0,1-13.665,13.666H34.2A13.664,13.664,0,0,1,20.534-29.344,13.661,13.661,0,0,1,34.2-43.01h8.21A13.662,13.662,0,0,1,28.748-56.676,13.662,13.662,0,0,1,42.409-70.342H13.661A13.662,13.662,0,0,1,0-84.008,13.662,13.662,0,0,1,13.661-97.673H56.155a13.667,13.667,0,0,0,13.661-13.666h0l0-.3a13.662,13.662,0,0,0-13.658-13.365H48.8a13.662,13.662,0,0,1-13.661-13.666A13.662,13.662,0,0,1,48.8-152.337H26.438A13.662,13.662,0,0,1,12.777-166a13.662,13.662,0,0,1,13.661-13.666H49.831a13.666,13.666,0,0,1-13.668-13.666A13.665,13.665,0,0,1,49.831-207Z" transform="translate(0 207)" fill="none" clip-rule="evenodd"/>
    </clipPath>
    <clipPath id="clip-path-2">
      <path id="Path_5931" data-name="Path 5931" d="M-21,315.305H325.109V-300H-21Z" transform="translate(21 300)" fill="none"/>
    </clipPath>
  </defs>
  <g id="Group_968" data-name="Group 968" transform="translate(-299 -251.837)">
    <text id="_4" data-name="4" transform="translate(299 629)" fill="#1f4788" font-size="385" font-family="Chalkboard"><tspan x="0" y="0">4</tspan></text>
    <g id="Group_921" data-name="Group 921" transform="translate(373.136 311.907)" clip-path="url(#clip-path)">
      <g id="Group_920" data-name="Group 920" transform="translate(-20.19 -89.412)" clip-path="url(#clip-path-2)">
        <path id="Path_5930" data-name="Path 5930" d="M-5-212H310.344V-11.064H-5Z" transform="translate(20.383 296.604)" fill="rgba(246,249,252,0.84)"/>
      </g>
    </g>
    <g id="Group_923" data-name="Group 923" transform="translate(739.27 526.723)" clip-path="url(#clip-path)">
      <g id="Group_922" data-name="Group 922" transform="translate(-20.19 -89.412)" clip-path="url(#clip-path-2)">
        <path id="Path_5933" data-name="Path 5933" d="M-5-212H310.344V-11.064H-5Z" transform="translate(20.383 296.604)" fill="rgba(246,249,252,0.84)"/>
      </g>
    </g>
    <path id="Path_5940" data-name="Path 5940" d="M330.917,396.642a2.713,2.713,0,0,1-2.713-2.713,3.429,3.429,0,0,0-3.425-3.424,2.713,2.713,0,0,1,0-5.427,3.429,3.429,0,0,0,3.425-3.425,2.713,2.713,0,0,1,5.427,0,3.428,3.428,0,0,0,3.424,3.425,2.713,2.713,0,1,1,0,5.427,3.428,3.428,0,0,0-3.424,3.424A2.713,2.713,0,0,1,330.917,396.642Z" transform="translate(197.26 253.977)" fill="#ff7eb8"/>
    <g id="Group_939" data-name="Group 939" transform="translate(907.737 303.648)">
      <path id="Path_5945" data-name="Path 5945" d="M330.917,396.642a2.713,2.713,0,0,1-2.713-2.713,3.429,3.429,0,0,0-3.425-3.424,2.713,2.713,0,0,1,0-5.427,3.429,3.429,0,0,0,3.425-3.425,2.713,2.713,0,0,1,5.427,0,3.428,3.428,0,0,0,3.424,3.425,2.713,2.713,0,1,1,0,5.427,3.428,3.428,0,0,0-3.424,3.424A2.713,2.713,0,0,1,330.917,396.642Z" transform="translate(-322.065 -293.87)" fill="#ff7eb8"/>
      <path id="Path_5946" data-name="Path 5946" d="M377.846,434.762a2.713,2.713,0,0,1-2.713-2.713,3.429,3.429,0,0,0-3.425-3.425,2.713,2.713,0,1,1,0-5.427,3.429,3.429,0,0,0,3.425-3.425,2.713,2.713,0,1,1,5.427,0,3.429,3.429,0,0,0,3.424,3.425,2.713,2.713,0,1,1,0,5.427,3.429,3.429,0,0,0-3.424,3.425A2.714,2.714,0,0,1,377.846,434.762Z" transform="translate(-351.218 -417.059)" fill="#6583fe"/>
    </g>
    <g id="Group_941" data-name="Group 941" transform="translate(355.83 251.837)">
      <path id="Path_5942" data-name="Path 5942" d="M90.588,85.946a2.713,2.713,0,0,1-2.713-2.713,3.429,3.429,0,0,0-3.425-3.424,2.713,2.713,0,0,1,0-5.427,3.429,3.429,0,0,0,3.425-3.425,2.713,2.713,0,0,1,5.427,0,3.429,3.429,0,0,0,3.424,3.425,2.713,2.713,0,0,1,0,5.427A3.428,3.428,0,0,0,93.3,83.232,2.713,2.713,0,0,1,90.588,85.946Z" transform="translate(-33.278 -68.243)" fill="#ff7eb8"/>
      <path id="Path_5943" data-name="Path 5943" d="M49.125,127.408a2.714,2.714,0,0,1-1.919-.8l-6.138-6.138a2.713,2.713,0,0,1,0-3.837l6.138-6.138a2.713,2.713,0,0,1,3.837,0l6.138,6.138a2.713,2.713,0,0,1,0,3.838l-6.138,6.138a2.713,2.713,0,0,1-1.918.794Zm-2.3-8.851,2.3,2.3,2.3-2.3-2.3-2.3Z" transform="translate(-40.274 -58.362)" fill="#6583fe"/>
    </g>
    <g id="Group_940" data-name="Group 940" transform="translate(689.966 609.378)">
      <path id="Path_5941" data-name="Path 5941" d="M377.846,434.762a2.713,2.713,0,0,1-2.713-2.713,3.429,3.429,0,0,0-3.425-3.425,2.713,2.713,0,1,1,0-5.427,3.429,3.429,0,0,0,3.425-3.425,2.713,2.713,0,1,1,5.427,0,3.429,3.429,0,0,0,3.424,3.425,2.713,2.713,0,1,1,0,5.427,3.429,3.429,0,0,0-3.424,3.425A2.714,2.714,0,0,1,377.846,434.762Z" transform="translate(-368.994 -417.059)" fill="#6583fe"/>
      <path id="Path_5944" data-name="Path 5944" d="M416.708,402.82a2.7,2.7,0,0,1-1.918-.794l-6.138-6.138a2.713,2.713,0,0,1,0-3.838l6.138-6.138a2.713,2.713,0,0,1,3.837,0l6.138,6.138a2.713,2.713,0,0,1,0,3.838l-6.138,6.138A2.7,2.7,0,0,1,416.708,402.82Zm-2.3-8.851,2.3,2.3,2.3-2.3-2.3-2.3Z" transform="translate(-372.345 -338.036)" fill="#01eca5"/>
    </g>
    <text id="_3" data-name="3" transform="translate(707 644)" fill="#1f4788" font-size="385" font-family="Chalkboard"><tspan x="0" y="0">3</tspan></text>
    <g id="fingerprints" transform="translate(456.215 359.309)">
      <path id="Path_5980" data-name="Path 5980" d="M112.819,306.317a92.783,92.783,0,0,1-37.6-74.376V141.789c0-2.643.113-5.311.335-7.929a5.218,5.218,0,1,0-10.4-.884c-.247,2.911-.373,5.876-.373,8.813v90.151a102.65,102.65,0,0,0,41.839,82.776,5.218,5.218,0,1,0,6.194-8.4Z" transform="translate(0 -39.003)" fill="#ff6d62"/>
      <path id="Path_5981" data-name="Path 5981" d="M161.41,400.742a92.084,92.084,0,0,1-9.469-3.907,5.218,5.218,0,0,0-4.512,9.411,102.679,102.679,0,0,0,10.546,4.351,5.218,5.218,0,1,0,3.435-9.855Z" transform="translate(-24.241 -120.573)" fill="#ff6d62"/>
      <path id="Path_5982" data-name="Path 5982" d="M302.824,243.219a5.218,5.218,0,0,0-5.218,5.218v18.5a92.455,92.455,0,0,1-92.351,92.35,93.724,93.724,0,0,1-10.786-.623,5.218,5.218,0,0,0-1.206,10.367,104.15,104.15,0,0,0,11.992.692A102.9,102.9,0,0,0,308.042,266.934v-18.5A5.217,5.217,0,0,0,302.824,243.219Z" transform="translate(-37.683 -73.995)" fill="#ff6d62"/>
      <path id="Path_5983" data-name="Path 5983" d="M169.616,0a102.829,102.829,0,0,0-97.86,71.259,5.219,5.219,0,1,0,9.935,3.2,92.366,92.366,0,0,1,180.275,28.33v50.782a5.218,5.218,0,0,0,10.437,0V102.787A102.9,102.9,0,0,0,169.616,0Z" transform="translate(-2.044 0)" fill="#ff6d62"/>
      <path id="Path_5984" data-name="Path 5984" d="M109.9,318.51a5.218,5.218,0,0,0-2.371,6.988,81.311,81.311,0,0,0,72.884,45.4,80.411,80.411,0,0,0,33.527-7.246,5.218,5.218,0,1,0-4.321-9.5,70.694,70.694,0,0,1-67.063-4.69,71.191,71.191,0,0,1-25.667-28.577A5.218,5.218,0,0,0,109.9,318.51Z" transform="translate(-12.84 -96.737)" fill="#ff6d62"/>
      <path id="Path_5985" data-name="Path 5985" d="M282.352,278.242a5.2,5.2,0,0,0,3.447-1.3,81.277,81.277,0,0,0,27.594-60.953V125.835a80.523,80.523,0,0,0-15.7-47.945,5.218,5.218,0,1,0-8.414,6.174,70.158,70.158,0,0,1,13.673,41.771v90.151A70.839,70.839,0,0,1,278.9,269.108a5.218,5.218,0,0,0,3.451,9.134Z" transform="translate(-64.603 -23.048)" fill="#ff6d62"/>
      <path id="Path_5986" data-name="Path 5986" d="M264.211,56.985a5.218,5.218,0,1,0,5.945-8.577,81.443,81.443,0,0,0-12.524-7.127,5.218,5.218,0,1,0-4.336,9.493A70.946,70.946,0,0,1,264.211,56.985Z" transform="translate(-56.423 -12.415)" fill="#ff6d62"/>
      <path id="Path_5987" data-name="Path 5987" d="M190.592,32.137a81.261,81.261,0,0,0-94.806,80.082v87.658a5.218,5.218,0,1,0,10.437,0V112.218a70.823,70.823,0,0,1,82.628-69.791,5.218,5.218,0,0,0,1.742-10.29Z" transform="translate(-9.431 -9.431)" fill="#ff6d62"/>
      <path id="Path_5988" data-name="Path 5988" d="M141.06,88.315a5.218,5.218,0,1,0,8.646,5.846,49.2,49.2,0,0,1,90.012,27.489v58.436a5.218,5.218,0,0,0,10.437,0V121.65A59.636,59.636,0,0,0,141.06,88.315Z" transform="translate(-22.933 -18.862)" fill="#ff6d62"/>
      <path id="Path_5989" data-name="Path 5989" d="M132,163.183a5.218,5.218,0,0,0,5.218-5.218V145.45a5.218,5.218,0,0,0-10.437,0v12.514A5.218,5.218,0,0,0,132,163.183Z" transform="translate(-18.863 -42.663)" fill="#ff6d62"/>
      <path id="Path_5990" data-name="Path 5990" d="M126.786,250.2a59.774,59.774,0,0,0,30.647,52.114,5.218,5.218,0,1,0,5.089-9.111,49.329,49.329,0,0,1-25.3-43V193.438a5.218,5.218,0,0,0-10.437,0V250.2Z" transform="translate(-18.863 -57.262)" fill="#ff6d62"/>
      <path id="Path_5991" data-name="Path 5991" d="M264.214,270.889v-9.451a5.218,5.218,0,0,0-10.437,0v9.451a49.235,49.235,0,0,1-60.938,47.8,5.218,5.218,0,1,0-2.487,10.136,59.672,59.672,0,0,0,73.861-57.938Z" transform="translate(-36.992 -77.95)" fill="#ff6d62"/>
      <path id="Path_5992" data-name="Path 5992" d="M233.947,131.632c0-20.908-16.753-38.235-37.347-38.625a38.116,38.116,0,0,0-38.814,38.074v90.151a5.218,5.218,0,0,0,10.437,0V131.081A27.679,27.679,0,0,1,196.4,103.442c14.947.283,27.109,12.929,27.109,28.19v49.535a5.218,5.218,0,0,0,10.437,0Z" transform="translate(-28.294 -28.293)" fill="#ff6d62"/>
      <path id="Path_5993" data-name="Path 5993" d="M188.786,264.153a27.3,27.3,0,1,0,54.591,0V238.918a5.218,5.218,0,0,0-10.437,0v25.235a16.859,16.859,0,1,1-33.718,0V219.437a5.218,5.218,0,1,0-10.437,0v44.716Z" transform="translate(-37.725 -65.172)" fill="#ff6d62"/>
      <path id="Path_5994" data-name="Path 5994" d="M216.591,239.917a5.218,5.218,0,0,0,5.218-5.218V140.839a16.666,16.666,0,0,0-15.686-16.82,16.365,16.365,0,0,0-12.2,4.534,16.586,16.586,0,0,0-5.133,11.958v29.213a5.218,5.218,0,0,0,10.437,0V140.512a6.088,6.088,0,0,1,6.387-6.068,6.32,6.32,0,0,1,5.763,6.4V234.7A5.218,5.218,0,0,0,216.591,239.917Z" transform="translate(-37.725 -37.724)" fill="#ff6d62"/>
    </g>
    <text id="_0" data-name="0" transform="translate(507 631)" fill="#608efd" font-size="385" font-family="Chalkboard"><tspan x="0" y="0">0</tspan></text>
    <g id="Group_937" data-name="Group 937" transform="translate(506.404 272)">
      <path id="Path_5971" data-name="Path 5971" d="M332.8,68.267h16.408v68.726H332.8Z" transform="translate(-142.777 -2.634)" fill="#ff6d62"/>
      <path id="Path_5972" data-name="Path 5972" d="M179.2,34.133h16.408v82.639H179.2Z" transform="translate(-136.851 -1.317)" fill="#ff6d62"/>
      <path id="Path_5973" data-name="Path 5973" d="M304.237,112.6a8.183,8.183,0,0,1-4.1-1.1,88.688,88.688,0,0,0-60.16-10.665,8.3,8.3,0,0,1-6.662-1.83,8.209,8.209,0,0,1-2.912-6.3v-50.7h16.408V83.39c2.805-.237,5.529-.361,8.2-.361a107.031,107.031,0,0,1,41.021,8.2V25.6h16.408v78.8A8.208,8.208,0,0,1,304.237,112.6Z" transform="translate(-138.826 -0.988)" fill="#ff6d62"/>
      <path id="Path_5974" data-name="Path 5974" d="M264.533,8.533h16.408V41.349H264.533V8.533Z" transform="translate(-140.143 -0.329)" fill="#ff6d62"/>
      <path id="Path_5975" data-name="Path 5975" d="M147.383,98.337,135.151,87.394a157.194,157.194,0,0,1,20.92-19.469L166.1,80.9A141.609,141.609,0,0,0,147.383,98.337Z" transform="translate(-135.151 -2.621)" fill="#ff6d62"/>
      <path id="Path_5976" data-name="Path 5976" d="M179.2,0h16.408V16.408H179.2Z" transform="translate(-136.851)" fill="#ff6d62"/>
      <path id="Path_5977" data-name="Path 5977" d="M332.8,34.133h16.408V50.541H332.8Z" transform="translate(-142.777 -1.317)" fill="#ff6d62"/>
    </g>
    <path id="Path_5995" data-name="Path 5995" d="M67,176.187a1.59,1.59,0,0,0-2.172-.582l-3.49,2.015v-4.03a1.59,1.59,0,0,0-3.18,0v4.03l-3.49-2.015a1.59,1.59,0,0,0-1.59,2.754l3.49,2.015-3.49,2.015a1.59,1.59,0,1,0,1.59,2.754l3.49-2.015v4.03a1.59,1.59,0,0,0,3.18,0v-4.03l3.49,2.015a1.59,1.59,0,1,0,1.59-2.754l-3.49-2.015,3.49-2.015A1.59,1.59,0,0,0,67,176.187Z" transform="translate(523.714 443.251)" fill="#fff"/>
    <path id="Path_5996" data-name="Path 5996" d="M67,176.187a1.59,1.59,0,0,0-2.172-.582l-3.49,2.015v-4.03a1.59,1.59,0,0,0-3.18,0v4.03l-3.49-2.015a1.59,1.59,0,0,0-1.59,2.754l3.49,2.015-3.49,2.015a1.59,1.59,0,1,0,1.59,2.754l3.49-2.015v4.03a1.59,1.59,0,0,0,3.18,0v-4.03l3.49,2.015a1.59,1.59,0,1,0,1.59-2.754l-3.49-2.015,3.49-2.015A1.59,1.59,0,0,0,67,176.187Z" transform="translate(546.714 443.251)" fill="#fff"/>
    <path id="Path_5997" data-name="Path 5997" d="M67,176.187a1.59,1.59,0,0,0-2.172-.582l-3.49,2.015v-4.03a1.59,1.59,0,0,0-3.18,0v4.03l-3.49-2.015a1.59,1.59,0,0,0-1.59,2.754l3.49,2.015-3.49,2.015a1.59,1.59,0,1,0,1.59,2.754l3.49-2.015v4.03a1.59,1.59,0,0,0,3.18,0v-4.03l3.49,2.015a1.59,1.59,0,1,0,1.59-2.754l-3.49-2.015,3.49-2.015A1.59,1.59,0,0,0,67,176.187Z" transform="translate(569.714 443.251)" fill="#fff"/>
  </g>
</svg>
