<svg xmlns="http://www.w3.org/2000/svg" xmlns:xlink="http://www.w3.org/1999/xlink" width="746" height="568" viewBox="0 0 746 568">
  <defs>
    <clipPath id="clip-path">
      <path id="Path_5932" data-name="Path 5932" d="M289.78-207a13.666,13.666,0,0,1,13.665,13.365l0,.3a13.665,13.665,0,0,1-13.668,13.666H271.523A13.668,13.668,0,0,1,285.192-166.3l0,.3a13.664,13.664,0,0,1-13.672,13.666H259.386a13.666,13.666,0,0,0-13.662,13.666,13.663,13.663,0,0,0,13.662,13.666h32.682a13.662,13.662,0,0,1,13.658,13.365l0,.3a13.662,13.662,0,0,1-13.661,13.666H260.554v.119a13.782,13.782,0,0,0-1.506-.115l-.3,0H224.488a13.667,13.667,0,0,0-13.672,13.666,13.668,13.668,0,0,0,13.672,13.666h34.259a13.816,13.816,0,0,0,1.807-.118v.117h10.068A13.662,13.662,0,0,1,284.28-56.977l0,.3A13.662,13.662,0,0,1,270.622-43.01H243.239A13.664,13.664,0,0,1,256.9-29.646l0,.3a13.661,13.661,0,0,1-13.665,13.666H34.2A13.664,13.664,0,0,1,20.534-29.344,13.661,13.661,0,0,1,34.2-43.01h8.21A13.662,13.662,0,0,1,28.748-56.676,13.662,13.662,0,0,1,42.409-70.342H13.661A13.662,13.662,0,0,1,0-84.008,13.662,13.662,0,0,1,13.661-97.673H56.155a13.667,13.667,0,0,0,13.661-13.666h0l0-.3a13.662,13.662,0,0,0-13.658-13.365H48.8a13.662,13.662,0,0,1-13.661-13.666A13.662,13.662,0,0,1,48.8-152.337H26.438A13.662,13.662,0,0,1,12.777-166a13.662,13.662,0,0,1,13.661-13.666H49.831a13.666,13.666,0,0,1-13.668-13.666A13.665,13.665,0,0,1,49.831-207Z" transform="translate(0 207)" fill="none" clip-rule="evenodd"/>
    </clipPath>
    <clipPath id="clip-path-2">
      <path id="Path_5931" data-name="Path 5931" d="M-21,315.305H325.109V-300H-21Z" transform="translate(21 300)" fill="none"/>
    </clipPath>
  </defs>
  <g id="Group_967" data-name="Group 967" transform="translate(-299 -185)">
    <text id="_4" data-name="4" transform="translate(299 629)" fill="#1f4788" font-size="385" font-family="Chalkboard"><tspan x="0" y="0">4</tspan></text>
    <g id="Group_921" data-name="Group 921" transform="translate(373.136 311.907)" clip-path="url(#clip-path)">
      <g id="Group_920" data-name="Group 920" transform="translate(-20.19 -89.412)" clip-path="url(#clip-path-2)">
        <path id="Path_5930" data-name="Path 5930" d="M-5-212H310.344V-11.064H-5Z" transform="translate(20.383 296.604)" fill="rgba(246,249,252,0.84)"/>
      </g>
    </g>
    <g id="Group_923" data-name="Group 923" transform="translate(739.27 526.723)" clip-path="url(#clip-path)">
      <g id="Group_922" data-name="Group 922" transform="translate(-20.19 -89.412)" clip-path="url(#clip-path-2)">
        <path id="Path_5933" data-name="Path 5933" d="M-5-212H310.344V-11.064H-5Z" transform="translate(20.383 296.604)" fill="rgba(246,249,252,0.84)"/>
      </g>
    </g>
    <path id="Path_5940" data-name="Path 5940" d="M330.917,396.642a2.713,2.713,0,0,1-2.713-2.713,3.429,3.429,0,0,0-3.425-3.424,2.713,2.713,0,0,1,0-5.427,3.429,3.429,0,0,0,3.425-3.425,2.713,2.713,0,0,1,5.427,0,3.428,3.428,0,0,0,3.424,3.425,2.713,2.713,0,1,1,0,5.427,3.428,3.428,0,0,0-3.424,3.424A2.713,2.713,0,0,1,330.917,396.642Z" transform="translate(197.26 253.977)" fill="#ff7eb8"/>
    <g id="Group_939" data-name="Group 939" transform="translate(907.737 303.648)">
      <path id="Path_5945" data-name="Path 5945" d="M330.917,396.642a2.713,2.713,0,0,1-2.713-2.713,3.429,3.429,0,0,0-3.425-3.424,2.713,2.713,0,0,1,0-5.427,3.429,3.429,0,0,0,3.425-3.425,2.713,2.713,0,0,1,5.427,0,3.428,3.428,0,0,0,3.424,3.425,2.713,2.713,0,1,1,0,5.427,3.428,3.428,0,0,0-3.424,3.424A2.713,2.713,0,0,1,330.917,396.642Z" transform="translate(-322.065 -293.87)" fill="#ff7eb8"/>
      <path id="Path_5946" data-name="Path 5946" d="M377.846,434.762a2.713,2.713,0,0,1-2.713-2.713,3.429,3.429,0,0,0-3.425-3.425,2.713,2.713,0,1,1,0-5.427,3.429,3.429,0,0,0,3.425-3.425,2.713,2.713,0,1,1,5.427,0,3.429,3.429,0,0,0,3.424,3.425,2.713,2.713,0,1,1,0,5.427,3.429,3.429,0,0,0-3.424,3.425A2.714,2.714,0,0,1,377.846,434.762Z" transform="translate(-351.218 -417.059)" fill="#6583fe"/>
    </g>
    <g id="Group_941" data-name="Group 941" transform="translate(355.83 251.837)">
      <path id="Path_5942" data-name="Path 5942" d="M90.588,85.946a2.713,2.713,0,0,1-2.713-2.713,3.429,3.429,0,0,0-3.425-3.424,2.713,2.713,0,0,1,0-5.427,3.429,3.429,0,0,0,3.425-3.425,2.713,2.713,0,0,1,5.427,0,3.429,3.429,0,0,0,3.424,3.425,2.713,2.713,0,0,1,0,5.427A3.428,3.428,0,0,0,93.3,83.232,2.713,2.713,0,0,1,90.588,85.946Z" transform="translate(-33.278 -68.243)" fill="#ff7eb8"/>
      <path id="Path_5943" data-name="Path 5943" d="M49.125,127.408a2.714,2.714,0,0,1-1.919-.8l-6.138-6.138a2.713,2.713,0,0,1,0-3.837l6.138-6.138a2.713,2.713,0,0,1,3.837,0l6.138,6.138a2.713,2.713,0,0,1,0,3.838l-6.138,6.138a2.713,2.713,0,0,1-1.918.794Zm-2.3-8.851,2.3,2.3,2.3-2.3-2.3-2.3Z" transform="translate(-40.274 -58.362)" fill="#6583fe"/>
    </g>
    <g id="Group_940" data-name="Group 940" transform="translate(689.966 609.378)">
      <path id="Path_5941" data-name="Path 5941" d="M377.846,434.762a2.713,2.713,0,0,1-2.713-2.713,3.429,3.429,0,0,0-3.425-3.425,2.713,2.713,0,1,1,0-5.427,3.429,3.429,0,0,0,3.425-3.425,2.713,2.713,0,1,1,5.427,0,3.429,3.429,0,0,0,3.424,3.425,2.713,2.713,0,1,1,0,5.427,3.429,3.429,0,0,0-3.424,3.425A2.714,2.714,0,0,1,377.846,434.762Z" transform="translate(-368.994 -417.059)" fill="#6583fe"/>
      <path id="Path_5944" data-name="Path 5944" d="M416.708,402.82a2.7,2.7,0,0,1-1.918-.794l-6.138-6.138a2.713,2.713,0,0,1,0-3.838l6.138-6.138a2.713,2.713,0,0,1,3.837,0l6.138,6.138a2.713,2.713,0,0,1,0,3.838l-6.138,6.138A2.7,2.7,0,0,1,416.708,402.82Zm-2.3-8.851,2.3,2.3,2.3-2.3-2.3-2.3Z" transform="translate(-372.345 -338.036)" fill="#01eca5"/>
    </g>
    <g id="Group_942" data-name="Group 942" transform="translate(506.405 185)">
      <g id="Group_937" data-name="Group 937" transform="translate(0 0)">
        <path id="Path_5971" data-name="Path 5971" d="M332.8,68.267h16.408v68.726H332.8Z" transform="translate(-142.777 -2.634)" fill="#ff6d62"/>
        <path id="Path_5972" data-name="Path 5972" d="M179.2,34.133h16.408v82.639H179.2Z" transform="translate(-136.851 -1.317)" fill="#ff6d62"/>
        <path id="Path_5973" data-name="Path 5973" d="M304.237,112.6a8.183,8.183,0,0,1-4.1-1.1,88.688,88.688,0,0,0-60.16-10.665,8.3,8.3,0,0,1-6.662-1.83,8.209,8.209,0,0,1-2.912-6.3v-50.7h16.408V83.39c2.805-.237,5.529-.361,8.2-.361a107.031,107.031,0,0,1,41.021,8.2V25.6h16.408v78.8A8.208,8.208,0,0,1,304.237,112.6Z" transform="translate(-138.826 -0.988)" fill="#ff6d62"/>
        <path id="Path_5974" data-name="Path 5974" d="M264.533,8.533h16.408V41.349H264.533V8.533Z" transform="translate(-140.143 -0.329)" fill="#ff6d62"/>
        <path id="Path_5975" data-name="Path 5975" d="M147.383,98.337,135.151,87.394a157.194,157.194,0,0,1,20.92-19.469L166.1,80.9A141.609,141.609,0,0,0,147.383,98.337Z" transform="translate(-135.151 -2.621)" fill="#ff6d62"/>
        <path id="Path_5976" data-name="Path 5976" d="M179.2,0h16.408V16.408H179.2Z" transform="translate(-136.851)" fill="#ff6d62"/>
        <path id="Path_5977" data-name="Path 5977" d="M332.8,34.133h16.408V50.541H332.8Z" transform="translate(-142.777 -1.317)" fill="#ff6d62"/>
      </g>
      <g id="at" transform="translate(21.626 84.225)">
        <g id="Group_933" data-name="Group 933" transform="translate(0 0)">
          <g id="Group_932" data-name="Group 932" transform="translate(0 0)">
            <path id="Path_5937" data-name="Path 5937" d="M288.8,100.087a26.786,26.786,0,1,0-53.317,3.658A98.264,98.264,0,0,0,177.67,84.991h-.179a99.959,99.959,0,0,0-86.8,149.27,26.78,26.78,0,1,0,37.58,37.638,99.381,99.381,0,0,0,49.408,13.084,9.765,9.765,0,1,0,0-19.53,79.993,79.993,0,0,1-43.792-12.993,26.792,26.792,0,0,0-23.75-23.785A80.429,80.429,0,0,1,177.526,104.52h.143a79.445,79.445,0,0,1,56.4,23.588,81,81,0,0,1,24.069,57.653V200.3a16.759,16.759,0,1,1-33.518,0V149.007a9.763,9.763,0,0,0-2.86-6.9,60.648,60.648,0,1,0-43.309,103.531l.435,0a60.163,60.163,0,0,0,41.089-16.048A36.272,36.272,0,0,0,277.671,200.3V185.759a100.015,100.015,0,0,0-19.242-59.135A26.753,26.753,0,0,0,288.8,100.087ZM178.59,226.106a40.835,40.835,0,0,1-29.2-12.462,41.387,41.387,0,0,1,0-57.312,40.843,40.843,0,0,1,29.2-12.462h.295a40.775,40.775,0,0,1,26.209,9.435v47a36.1,36.1,0,0,0,2.754,13.867A40.889,40.889,0,0,1,178.59,226.106Z" transform="translate(-77.677 -71.6)" fill="#2626bc" opacity="0.1"/>
            <g id="Group_925" data-name="Group 925" transform="translate(0.001 0)">
              <path id="Path_5938" data-name="Path 5938" d="M177.675,270.159a100,100,0,0,1-.182-199.993h.179a98.842,98.842,0,0,1,70.2,29.3,100.4,100.4,0,0,1,29.8,71.474v14.541a36.272,36.272,0,0,1-57.693,29.287,60.165,60.165,0,0,1-41.089,16.048l-.435,0a60.648,60.648,0,1,1,43.309-103.531,9.763,9.763,0,0,1,2.86,6.9v51.294a16.759,16.759,0,1,0,33.518,0V170.937a81,81,0,0,0-24.069-57.653,79.444,79.444,0,0,0-56.4-23.588h-.143a80.467,80.467,0,0,0,.148,160.934,9.764,9.764,0,1,1,0,19.528Zm1.211-141.115h-.295a40.837,40.837,0,0,0-29.2,12.462,41.387,41.387,0,0,0,0,57.312,41.118,41.118,0,0,0,58.458.525,36.106,36.106,0,0,1-2.754-13.867v-47a40.778,40.778,0,0,0-26.209-9.435Z" transform="translate(-77.678 -70.166)" fill="#608efd"/>
            </g>
            <g id="Group_926" data-name="Group 926" transform="translate(157.553 19.519)">
              <path id="Path_5939" data-name="Path 5939" d="M380.643,115.911a102.7,102.7,0,0,0-11.327-9.776,26.8,26.8,0,0,0,29.741,34.746A102.165,102.165,0,0,0,380.643,115.911Z" transform="translate(-368.005 -106.135)" fill="#2563fa"/>
            </g>
          </g>
        </g>
      </g>
      <g id="Group_938" data-name="Group 938" transform="translate(38.247 289.489)">
        <path id="Path_5978" data-name="Path 5978" d="M254.262,356.575a156.437,156.437,0,0,1-43.292-6.088l4.545-15.768a140.015,140.015,0,0,0,38.748,5.447,138.109,138.109,0,0,0,85.224-29.059l10.042,12.979A154.421,154.421,0,0,1,254.262,356.575Z" transform="translate(-176.324 -311.108)" fill="#ff6d62"/>
        <path id="Path_5979" data-name="Path 5979" d="M192.252,344.769a154.779,154.779,0,0,1-17.319-8.639l8.2-14.193a138.15,138.15,0,0,0,15.489,7.7Z" transform="translate(-174.933 -311.526)" fill="#ff6d62"/>
      </g>
    </g>
    <text id="_4-2" data-name="4" transform="translate(707 644)" fill="#1f4788" font-size="385" font-family="Chalkboard"><tspan x="0" y="0">4</tspan></text>
  </g>
</svg>
