<svg xmlns="http://www.w3.org/2000/svg" width="189.334" height="193.219" viewBox="0 0 189.334 193.219">
  <g id="padlock" transform="translate(-5.146)">
    <path id="Path_6007" data-name="Path 6007" d="M183.441,95.232a183.565,183.565,0,0,1-27.213,49.822,183.043,183.043,0,0,1-53.577,46.523l-2.838,1.642-2.838-1.642A183.043,183.043,0,0,1,43.4,145.054,183.565,183.565,0,0,1,16.186,95.232c-11.2-30.983-11.05-55.2-11.038-56.215l.034-2.778L53.226,0H146.4l48.044,36.24.034,2.778C194.491,40.032,194.645,64.249,183.441,95.232Z" transform="translate(0)" fill="#1f4788"/>
    <path id="Path_6008" data-name="Path 6008" d="M339.627,95.232a183.565,183.565,0,0,1-27.213,49.822,183.042,183.042,0,0,1-53.577,46.523L256,193.219V0h46.588l48.044,36.24.034,2.778C350.677,40.032,350.832,64.249,339.627,95.232Z" transform="translate(-156.186)" fill="#1f4788"/>
    <path id="Path_6009" data-name="Path 6009" d="M242.254,129.571V142.5l-10.712,0v-12.52a9.237,9.237,0,0,0-3.058-6.807,10.858,10.858,0,0,0-7.38-2.819c-5.764,0-10.438,4.31-10.438,9.627v12.511H199.956V129.571c0-11.235,9.468-20.343,21.15-20.343S242.254,118.336,242.254,129.571Z" transform="translate(-121.292 -68.008)" fill="#c8c6cd"/>
    <path id="Path_6010" data-name="Path 6010" d="M277.147,129.572V142.5l-10.712,0v-12.52a9.237,9.237,0,0,0-3.058-6.807,10.858,10.858,0,0,0-7.38-2.819V109.229C267.679,109.229,277.147,118.337,277.147,129.572Z" transform="translate(-156.185 -68.008)" fill="#aeadb3"/>
    <rect id="Rectangle_141" data-name="Rectangle 141" width="58.796" height="49.259" transform="translate(70.416 72.132)" fill="#fdc000"/>
    <path id="Path_6011" data-name="Path 6011" d="M250.877,242.72l.7,8.047h-9.222l.7-8.047a5.473,5.473,0,1,1,7.819,0Z" transform="translate(-147.155 -145.331)" fill="#ff8900"/>
    <rect id="Rectangle_142" data-name="Rectangle 142" width="29.398" height="49.259" transform="translate(99.814 72.132)" fill="#d9a600"/>
    <path id="Path_6012" data-name="Path 6012" d="M261.472,238.89a5.451,5.451,0,0,1-1.564,3.829l.7,8.047H256V233.418A5.473,5.473,0,0,1,261.472,238.89Z" transform="translate(-156.186 -145.331)" fill="#c06100"/>
    <path id="Path_6013" data-name="Path 6013" d="M169.241,43.12H93.818L56.11,70.933l.075,2.951c.019.834.623,20.737,9.744,45.72a153.538,153.538,0,0,0,21.458,39.882,136.725,136.725,0,0,0,40.9,36.232l2.834,1.642.419-.242,2.419-1.4A138.292,138.292,0,0,0,174.981,159.5a155.969,155.969,0,0,0,21.733-39.863c9.321-24.971,10.129-44.867,10.159-45.7l.106-2.985Zm16.865,72.563c-11.14,29.836-29.485,52.792-54.562,68.287l-.419.26C105.969,168.806,87.666,145.9,76.7,116.086a156.136,156.136,0,0,1-9.008-39.621L97.543,54.441h67.974l29.828,22A157.088,157.088,0,0,1,186.106,115.683Z" transform="translate(-31.731 -26.847)" fill="#fff"/>
    <path id="Path_6014" data-name="Path 6014" d="M331.434,70.956l-.106,2.985c-.03.834-.838,20.729-10.159,45.7A155.97,155.97,0,0,1,299.436,159.5a138.292,138.292,0,0,1-41.017,36.213l-2.419,1.4V183.969c25.077-15.5,43.421-38.451,54.562-68.287a157.091,157.091,0,0,0,9.238-39.24l-29.828-22H256V43.12h37.7Z" transform="translate(-156.186 -26.847)" fill="#dedde1"/>
  </g>
</svg>
