<svg xmlns="http://www.w3.org/2000/svg" width="14.382" height="17" viewBox="0 0 14.382 17">
  <g id="bookmarkShare" transform="translate(-890.082 -263)">
    <g id="bookmark-white" transform="translate(856.821 263)">
      <path id="Path_5615" data-name="Path 5615" d="M47.424.562A1.267,1.267,0,0,0,46.834.1,1.244,1.244,0,0,0,46.34,0H34.564a1.243,1.243,0,0,0-.494.1,1.266,1.266,0,0,0-.59.461,1.192,1.192,0,0,0-.219.7V15.742a1.193,1.193,0,0,0,.219.7,1.266,1.266,0,0,0,.59.461,1.243,1.243,0,0,0,.494.1,1.34,1.34,0,0,0,.933-.371l4.955-4.764,4.955,4.764a1.337,1.337,0,0,0,.933.359,1.307,1.307,0,0,0,1.084-.551,1.192,1.192,0,0,0,.219-.7V1.259A1.193,1.193,0,0,0,47.424.562ZM46.2,15.393l-4.753-4.562-1-.955-1,.955L34.7,15.393V1.438H46.2V15.393Z" fill="#1f4788"/>
    </g>
  </g>
</svg>
