<svg xmlns="http://www.w3.org/2000/svg" width="20.304" height="24" viewBox="0 0 20.304 24">
  <g id="bookmark-white" transform="translate(-33.261)">
    <path id="Path_5615" data-name="Path 5615" d="M53.256.793a1.788,1.788,0,0,0-.833-.65,1.756,1.756,0,0,0-.7-.143H35.1a1.755,1.755,0,0,0-.7.143,1.787,1.787,0,0,0-.833.65,1.683,1.683,0,0,0-.309.983V22.223a1.684,1.684,0,0,0,.309.984,1.787,1.787,0,0,0,.833.65,1.754,1.754,0,0,0,.7.143,1.892,1.892,0,0,0,1.317-.523l7-6.726,7,6.726a1.888,1.888,0,0,0,1.316.507,1.846,1.846,0,0,0,1.531-.777,1.682,1.682,0,0,0,.309-.983V1.777A1.684,1.684,0,0,0,53.256.793ZM51.535,21.731l-6.71-6.44-1.412-1.348L42,15.291l-6.71,6.44V2.031H51.535v19.7Z" fill="#eaf2ff"/>
  </g>
</svg>
