<svg xmlns="http://www.w3.org/2000/svg" width="155" height="222.29" viewBox="0 0 155 222.29">
  <g id="Group_1054" data-name="Group 1054" transform="translate(-650 -474.71)">
    <g id="box" transform="translate(673.256 538.253)">
      <path id="Path_6038" data-name="Path 6038" d="M56.171,89.873,0,56.171V0L56.171,33.7Z" transform="translate(0 33.702)" fill="#3e70c4"/>
      <path id="Path_6039" data-name="Path 6039" d="M0,89.873l56.17-33.7V0L0,33.7Z" transform="translate(56.171 33.702)" fill="#1f4788"/>
      <path id="Path_6040" data-name="Path 6040" d="M0,33.7,56.171,0l56.17,33.7L56.171,67.4Z" transform="translate(0 0)" fill="#97bcf8"/>
      <path id="Path_6049" data-name="Path 6049" d="M56.457,40.095,0,6.567,10.942,0,67.4,33.529Z" transform="translate(22.07 13.414)" fill="#1f4788"/>
    </g>
    <g id="XMLID_100_" transform="translate(734 505.71)">
      <path id="XMLID_99_" d="M24.127,0C14.392,0,6.5,9.019,6.5,20.145S14.392,40.29,24.127,40.29s17.627-9.019,17.627-20.145S33.862,0,24.127,0" transform="translate(-0.5)" fill="#ffd949"/>
      <path id="XMLID_132_" d="M13.455,16.909C13.455,8.272,7.582,1.152,0,.13A14.084,14.084,0,0,1,1.878,0C10.346,0,17.21,7.57,17.21,16.909S10.346,33.817,1.878,33.817A14.085,14.085,0,0,1,0,33.687c7.582-1.022,13.455-8.141,13.455-16.778" transform="translate(40.535 22.692) rotate(90)" fill="#f4bf1a"/>
      <path id="XMLID_115_" d="M24.755,5.476H24.7c-.478,0-.958.023-1.429.069a.593.593,0,0,0-.6.618.671.671,0,0,0,.759.486c.418-.041.844-.061,1.268-.061a.659.659,0,0,0,.712-.556.6.6,0,0,0-.653-.556m3.967.6a.694.694,0,0,0-.639.36.531.531,0,0,0,.4.716c.393.121.785.262,1.164.421a.762.762,0,0,0,.919-.241.511.511,0,0,0-.3-.748c-.425-.178-.864-.336-1.306-.472a.807.807,0,0,0-.24-.036M19.488,6.5a.805.805,0,0,0-.308.061c-.42.174-.835.369-1.234.582a.5.5,0,0,0-.2.769.783.783,0,0,0,.945.161c.357-.191.729-.366,1.1-.521a.512.512,0,0,0,.3-.747.713.713,0,0,0-.609-.3M33.207,8.476a.769.769,0,0,0-.48.161.486.486,0,0,0,0,.786,11.561,11.561,0,0,1,.858.779.794.794,0,0,0,.96.081.489.489,0,0,0,.1-.782c-.3-.3-.619-.591-.948-.86a.769.769,0,0,0-.484-.164m-17.886.782a.754.754,0,0,0-.528.2c-.3.295-.581.606-.845.925a.5.5,0,0,0,.184.772.782.782,0,0,0,.947-.15c.241-.291.5-.575.769-.842a.489.489,0,0,0-.095-.782.782.782,0,0,0-.433-.126m20.885,2.855a.822.822,0,0,0-.272.046.522.522,0,0,0-.353.732,10.722,10.722,0,0,1,.465.983.728.728,0,0,0,.864.35.54.54,0,0,0,.429-.7c-.15-.363-.321-.724-.507-1.072a.705.705,0,0,0-.626-.334m-23.485.982a.689.689,0,0,0-.646.377c-.151.36-.284.731-.4,1.1a.557.557,0,0,0,.5.673.7.7,0,0,0,.827-.4c.1-.341.227-.681.366-1.011a.538.538,0,0,0-.425-.705.81.81,0,0,0-.22-.031m24.774,3.277-.053,0a.606.606,0,0,0-.628.6c.032.337.048.681.048,1.021a.642.642,0,0,0,.682.573.616.616,0,0,0,.682-.537v-.036c0-.37-.018-.742-.053-1.107a.642.642,0,0,0-.679-.513M11.848,17.43a.625.625,0,0,0-.682.55v.012c0,.379.018.76.055,1.132a.655.655,0,0,0,.734.51.6.6,0,0,0,.626-.6c-.033-.343-.05-.695-.05-1.044a.633.633,0,0,0-.682-.562m25.2,3.314a.672.672,0,0,0-.66.42c-.106.342-.229.682-.368,1.012a.539.539,0,0,0,.424.706.726.726,0,0,0,.866-.346c.151-.359.286-.729.4-1.1a.558.558,0,0,0-.495-.675.774.774,0,0,0-.168-.017m-24.334,1.01a.83.83,0,0,0-.22.03.539.539,0,0,0-.427.7c.151.361.322.722.51,1.071a.75.75,0,0,0,.9.287.522.522,0,0,0,.352-.732c-.173-.321-.33-.652-.467-.983a.688.688,0,0,0-.646-.378m22.151,3a.736.736,0,0,0-.566.244c-.241.29-.5.573-.771.84a.489.489,0,0,0,.093.782.794.794,0,0,0,.961-.076c.3-.294.582-.6.847-.924a.5.5,0,0,0-.182-.772.794.794,0,0,0-.382-.1M15.3,25.6a.781.781,0,0,0-.431.126.488.488,0,0,0-.1.782c.3.3.62.589.949.859a.8.8,0,0,0,.965,0,.486.486,0,0,0,0-.786c-.3-.244-.587-.506-.861-.779a.747.747,0,0,0-.529-.2m15.746,2.239a.79.79,0,0,0-.371.09c-.357.189-.729.364-1.107.519a.512.512,0,0,0-.3.746.762.762,0,0,0,.916.246c.422-.173.837-.368,1.235-.58a.5.5,0,0,0,.2-.769.731.731,0,0,0-.572-.252m-11.584.528a.714.714,0,0,0-.609.3.511.511,0,0,0,.3.747c.425.176.864.335,1.307.469a.736.736,0,0,0,.878-.326.533.533,0,0,0-.4-.715c-.394-.12-.787-.261-1.166-.418a.8.8,0,0,0-.308-.061m6.553.972a.767.767,0,0,0-.08,0c-.411.039-.828.058-1.241.058a.644.644,0,0,0-.7.556.615.615,0,0,0,.668.556H24.7c.465,0,.936-.022,1.4-.066a.593.593,0,0,0,.6-.616.648.648,0,0,0-.677-.492" transform="translate(-1.071 -0.061)" fill="#f4bf1a"/>
      <g id="Group_1052" data-name="Group 1052" transform="translate(9.429 28.523)">
        <path id="Path_6056" data-name="Path 6056" d="M91.5,374.43v5.039q-.753-.637-1.439-1.347v-5.038C90.522,373.557,91.015,374.017,91.5,374.43Z" transform="translate(-90.065 -373.084)" fill="#dea900"/>
        <path id="Path_6057" data-name="Path 6057" d="M161.5,422.267V427.3q-.733-.254-1.439-.562V421.7C160.545,421.913,160.982,422.085,161.5,422.267Z" transform="translate(-153.768 -417.331)" fill="#dea900"/>
        <path id="Path_6058" data-name="Path 6058" d="M241.5,439.874v5.037c-.495.017-.944.017-1.439,0v-5.037C240.551,439.89,241,439.891,241.5,439.874Z" transform="translate(-226.572 -433.866)" fill="#dea900"/>
        <path id="Path_6059" data-name="Path 6059" d="M321.5,421.7v5.037q-.706.309-1.439.563v-5.037C320.586,422.085,321.023,421.914,321.5,421.7Z" transform="translate(-299.376 -417.331)" fill="#dea900"/>
        <path id="Path_6060" data-name="Path 6060" d="M391.5,373.084v5.038q-.685.707-1.439,1.346V374.43C390.553,374.017,391.047,373.557,391.5,373.084Z" transform="translate(-363.079 -373.084)" fill="#dea900"/>
      </g>
    </g>
    <g id="XMLID_100_2" data-name="XMLID_100_" transform="translate(691.695 514.71)">
      <path id="XMLID_99_2" data-name="XMLID_99_" d="M22.279,0C13.565,0,6.5,8.074,6.5,18.033s7.065,18.033,15.779,18.033,15.779-8.074,15.779-18.033S30.994,0,22.279,0" transform="translate(-0.5)" fill="#ffd949"/>
      <path id="XMLID_132_2" data-name="XMLID_132_" d="M12.045,15.136C12.045,7.4,6.787,1.031,0,.117A12.608,12.608,0,0,1,1.681,0C9.261,0,15.406,6.777,15.406,15.136S9.261,30.272,1.681,30.272A12.608,12.608,0,0,1,0,30.156c6.787-.915,12.045-7.288,12.045-15.019" transform="translate(36.915 20.313) rotate(90)" fill="#f4bf1a"/>
      <path id="XMLID_115_2" data-name="XMLID_115_" d="M23.33,5.476h-.053c-.427,0-.858.021-1.279.062a.531.531,0,0,0-.534.553.6.6,0,0,0,.679.435c.374-.036.755-.055,1.135-.055a.59.59,0,0,0,.637-.5.537.537,0,0,0-.584-.5m3.551.536a.621.621,0,0,0-.572.322.476.476,0,0,0,.356.641c.352.108.7.235,1.042.377a.682.682,0,0,0,.823-.215.457.457,0,0,0-.265-.67c-.38-.159-.773-.3-1.169-.422a.723.723,0,0,0-.215-.032m-8.266.38a.721.721,0,0,0-.276.054c-.376.156-.747.33-1.1.521a.445.445,0,0,0-.176.688A.7.7,0,0,0,17.9,7.8c.319-.171.652-.328.988-.467a.458.458,0,0,0,.268-.669.638.638,0,0,0-.545-.273M30.9,8.162a.688.688,0,0,0-.43.144.435.435,0,0,0,0,.7,10.349,10.349,0,0,1,.768.7.71.71,0,0,0,.859.072.438.438,0,0,0,.089-.7c-.269-.27-.555-.529-.848-.77a.688.688,0,0,0-.434-.147m-16.011.7a.675.675,0,0,0-.473.182c-.265.264-.52.542-.756.828a.444.444,0,0,0,.165.691.7.7,0,0,0,.848-.134c.216-.261.447-.514.688-.754a.438.438,0,0,0-.085-.7.7.7,0,0,0-.387-.112m18.7,2.555a.736.736,0,0,0-.244.041.468.468,0,0,0-.316.655,9.6,9.6,0,0,1,.416.88.652.652,0,0,0,.774.313.483.483,0,0,0,.384-.63c-.134-.325-.287-.648-.454-.96a.631.631,0,0,0-.56-.3M12.558,12.3a.617.617,0,0,0-.578.337c-.135.322-.255.654-.356.986a.5.5,0,0,0,.445.6.629.629,0,0,0,.74-.362c.093-.3.2-.61.327-.905a.482.482,0,0,0-.38-.631.725.725,0,0,0-.2-.027M34.735,15.23h-.048a.542.542,0,0,0-.562.535c.029.3.043.609.043.914a.575.575,0,0,0,.611.513.551.551,0,0,0,.611-.481V16.68c0-.331-.016-.664-.047-.991a.575.575,0,0,0-.608-.459m-22.958.948a.559.559,0,0,0-.611.492v.011c0,.339.016.68.049,1.013a.586.586,0,0,0,.657.457.541.541,0,0,0,.561-.535c-.03-.307-.045-.622-.045-.935a.567.567,0,0,0-.611-.5m22.556,2.966a.6.6,0,0,0-.591.376c-.095.306-.205.61-.33.906a.482.482,0,0,0,.38.632.65.65,0,0,0,.776-.309c.136-.321.256-.653.358-.984a.5.5,0,0,0-.443-.6.693.693,0,0,0-.15-.015m-21.783.9a.743.743,0,0,0-.2.027.483.483,0,0,0-.382.631c.135.323.288.646.456.959a.671.671,0,0,0,.8.257.467.467,0,0,0,.315-.655c-.155-.287-.295-.583-.418-.88a.616.616,0,0,0-.578-.338M32.379,22.73a.658.658,0,0,0-.506.219c-.216.26-.448.513-.69.752a.438.438,0,0,0,.083.7.71.71,0,0,0,.86-.068c.266-.263.521-.541.758-.827a.444.444,0,0,0-.163-.691.71.71,0,0,0-.342-.086m-17.511.757a.7.7,0,0,0-.386.112.437.437,0,0,0-.086.7c.269.269.555.527.849.769a.714.714,0,0,0,.864,0,.435.435,0,0,0,0-.7c-.266-.218-.526-.453-.771-.7a.669.669,0,0,0-.473-.183m14.1,2a.707.707,0,0,0-.332.081c-.319.17-.653.326-.991.465a.458.458,0,0,0-.269.668.682.682,0,0,0,.82.22c.377-.155.749-.329,1.106-.519a.445.445,0,0,0,.178-.688.654.654,0,0,0-.512-.226m-10.37.473a.639.639,0,0,0-.545.272.458.458,0,0,0,.267.669c.38.158.774.3,1.17.42a.659.659,0,0,0,.786-.291.477.477,0,0,0-.358-.64c-.353-.107-.7-.233-1.044-.375a.719.719,0,0,0-.276-.054m5.866.87a.687.687,0,0,0-.071,0c-.368.035-.741.052-1.111.052a.576.576,0,0,0-.624.5.55.55,0,0,0,.6.5h.026c.416,0,.838-.02,1.252-.059a.531.531,0,0,0,.536-.551.58.58,0,0,0-.606-.44" transform="translate(-1.501 -0.629)" fill="#f4bf1a"/>
      <g id="Group_1052-2" data-name="Group 1052" transform="translate(9.07 25.534)">
        <path id="Path_6056-2" data-name="Path 6056" d="M91.353,374.289V378.8q-.674-.57-1.288-1.205v-4.51C90.474,373.507,90.916,373.919,91.353,374.289Z" transform="translate(-90.065 -373.084)" fill="#dea900"/>
        <path id="Path_6057-2" data-name="Path 6057" d="M161.353,422.208v4.509q-.656-.227-1.288-.5V421.7C160.495,421.891,160.886,422.045,161.353,422.208Z" transform="translate(-154.428 -417.789)" fill="#dea900"/>
        <path id="Path_6058-2" data-name="Path 6058" d="M241.353,439.874v4.509c-.443.015-.845.015-1.288,0v-4.509C240.5,439.889,240.9,439.889,241.353,439.874Z" transform="translate(-227.987 -434.496)" fill="#dea900"/>
        <path id="Path_6059-2" data-name="Path 6059" d="M321.353,421.7v4.509q-.632.277-1.288.5v-4.509C320.531,422.045,320.923,421.892,321.353,421.7Z" transform="translate(-301.545 -417.789)" fill="#dea900"/>
        <path id="Path_6060-2" data-name="Path 6060" d="M391.353,373.084v4.51q-.614.633-1.288,1.2v-4.51C390.5,373.919,390.944,373.508,391.353,373.084Z" transform="translate(-365.908 -373.084)" fill="#dea900"/>
      </g>
    </g>
    <g id="XMLID_100_3" data-name="XMLID_100_" transform="translate(707.695 474.71)">
      <path id="XMLID_99_3" data-name="XMLID_99_" d="M22.279,0C13.565,0,6.5,8.074,6.5,18.033s7.065,18.033,15.779,18.033,15.779-8.074,15.779-18.033S30.994,0,22.279,0" transform="translate(-0.5)" fill="#ffd949"/>
      <path id="XMLID_132_3" data-name="XMLID_132_" d="M12.045,15.136C12.045,7.4,6.787,1.031,0,.117A12.608,12.608,0,0,1,1.681,0C9.261,0,15.406,6.777,15.406,15.136S9.261,30.272,1.681,30.272A12.608,12.608,0,0,1,0,30.156c6.787-.915,12.045-7.288,12.045-15.019" transform="translate(36.915 20.313) rotate(90)" fill="#f4bf1a"/>
      <path id="XMLID_115_3" data-name="XMLID_115_" d="M23.33,5.476h-.053c-.427,0-.858.021-1.279.062a.531.531,0,0,0-.534.553.6.6,0,0,0,.679.435c.374-.036.755-.055,1.135-.055a.59.59,0,0,0,.637-.5.537.537,0,0,0-.584-.5m3.551.536a.621.621,0,0,0-.572.322.476.476,0,0,0,.356.641c.352.108.7.235,1.042.377a.682.682,0,0,0,.823-.215.457.457,0,0,0-.265-.67c-.38-.159-.773-.3-1.169-.422a.723.723,0,0,0-.215-.032m-8.266.38a.721.721,0,0,0-.276.054c-.376.156-.747.33-1.1.521a.445.445,0,0,0-.176.688A.7.7,0,0,0,17.9,7.8c.319-.171.652-.328.988-.467a.458.458,0,0,0,.268-.669.638.638,0,0,0-.545-.273M30.9,8.162a.688.688,0,0,0-.43.144.435.435,0,0,0,0,.7,10.349,10.349,0,0,1,.768.7.71.71,0,0,0,.859.072.438.438,0,0,0,.089-.7c-.269-.27-.555-.529-.848-.77a.688.688,0,0,0-.434-.147m-16.011.7a.675.675,0,0,0-.473.182c-.265.264-.52.542-.756.828a.444.444,0,0,0,.165.691.7.7,0,0,0,.848-.134c.216-.261.447-.514.688-.754a.438.438,0,0,0-.085-.7.7.7,0,0,0-.387-.112m18.7,2.555a.736.736,0,0,0-.244.041.468.468,0,0,0-.316.655,9.6,9.6,0,0,1,.416.88.652.652,0,0,0,.774.313.483.483,0,0,0,.384-.63c-.134-.325-.287-.648-.454-.96a.631.631,0,0,0-.56-.3M12.558,12.3a.617.617,0,0,0-.578.337c-.135.322-.255.654-.356.986a.5.5,0,0,0,.445.6.629.629,0,0,0,.74-.362c.093-.3.2-.61.327-.905a.482.482,0,0,0-.38-.631.725.725,0,0,0-.2-.027M34.735,15.23h-.048a.542.542,0,0,0-.562.535c.029.3.043.609.043.914a.575.575,0,0,0,.611.513.551.551,0,0,0,.611-.481V16.68c0-.331-.016-.664-.047-.991a.575.575,0,0,0-.608-.459m-22.958.948a.559.559,0,0,0-.611.492v.011c0,.339.016.68.049,1.013a.586.586,0,0,0,.657.457.541.541,0,0,0,.561-.535c-.03-.307-.045-.622-.045-.935a.567.567,0,0,0-.611-.5m22.556,2.966a.6.6,0,0,0-.591.376c-.095.306-.205.61-.33.906a.482.482,0,0,0,.38.632.65.65,0,0,0,.776-.309c.136-.321.256-.653.358-.984a.5.5,0,0,0-.443-.6.693.693,0,0,0-.15-.015m-21.783.9a.743.743,0,0,0-.2.027.483.483,0,0,0-.382.631c.135.323.288.646.456.959a.671.671,0,0,0,.8.257.467.467,0,0,0,.315-.655c-.155-.287-.295-.583-.418-.88a.616.616,0,0,0-.578-.338M32.379,22.73a.658.658,0,0,0-.506.219c-.216.26-.448.513-.69.752a.438.438,0,0,0,.083.7.71.71,0,0,0,.86-.068c.266-.263.521-.541.758-.827a.444.444,0,0,0-.163-.691.71.71,0,0,0-.342-.086m-17.511.757a.7.7,0,0,0-.386.112.437.437,0,0,0-.086.7c.269.269.555.527.849.769a.714.714,0,0,0,.864,0,.435.435,0,0,0,0-.7c-.266-.218-.526-.453-.771-.7a.669.669,0,0,0-.473-.183m14.1,2a.707.707,0,0,0-.332.081c-.319.17-.653.326-.991.465a.458.458,0,0,0-.269.668.682.682,0,0,0,.82.22c.377-.155.749-.329,1.106-.519a.445.445,0,0,0,.178-.688.654.654,0,0,0-.512-.226m-10.37.473a.639.639,0,0,0-.545.272.458.458,0,0,0,.267.669c.38.158.774.3,1.17.42a.659.659,0,0,0,.786-.291.477.477,0,0,0-.358-.64c-.353-.107-.7-.233-1.044-.375a.719.719,0,0,0-.276-.054m5.866.87a.687.687,0,0,0-.071,0c-.368.035-.741.052-1.111.052a.576.576,0,0,0-.624.5.55.55,0,0,0,.6.5h.026c.416,0,.838-.02,1.252-.059a.531.531,0,0,0,.536-.551.58.58,0,0,0-.606-.44" transform="translate(-1.501 -0.629)" fill="#f4bf1a"/>
      <g id="Group_1052-3" data-name="Group 1052" transform="translate(9.07 25.534)">
        <path id="Path_6056-3" data-name="Path 6056" d="M91.353,374.289V378.8q-.674-.57-1.288-1.205v-4.51C90.474,373.507,90.916,373.919,91.353,374.289Z" transform="translate(-90.065 -373.084)" fill="#dea900"/>
        <path id="Path_6057-3" data-name="Path 6057" d="M161.353,422.208v4.509q-.656-.227-1.288-.5V421.7C160.495,421.891,160.886,422.045,161.353,422.208Z" transform="translate(-154.428 -417.789)" fill="#dea900"/>
        <path id="Path_6058-3" data-name="Path 6058" d="M241.353,439.874v4.509c-.443.015-.845.015-1.288,0v-4.509C240.5,439.889,240.9,439.889,241.353,439.874Z" transform="translate(-227.987 -434.496)" fill="#dea900"/>
        <path id="Path_6059-3" data-name="Path 6059" d="M321.353,421.7v4.509q-.632.277-1.288.5v-4.509C320.531,422.045,320.923,421.892,321.353,421.7Z" transform="translate(-301.545 -417.789)" fill="#dea900"/>
        <path id="Path_6060-3" data-name="Path 6060" d="M391.353,373.084v4.51q-.614.633-1.288,1.2v-4.51C390.5,373.919,390.944,373.508,391.353,373.084Z" transform="translate(-365.908 -373.084)" fill="#dea900"/>
      </g>
    </g>
    <g id="Group_1053" data-name="Group 1053" transform="translate(650 669)">
      <text id="COMING_SOON_" data-name="COMING SOON!" transform="translate(1 19)" fill="#d7e5fc" font-size="20" font-family="Poppins-SemiBold, Poppins" font-weight="600"><tspan x="0" y="0">COMING SOON!</tspan></text>
      <text id="COMING_SOON_2" data-name="COMING SOON!" transform="translate(0 21)" fill="#1f4788" font-size="20" font-family="Poppins-SemiBold, Poppins" font-weight="600"><tspan x="0" y="0">COMING SOON!</tspan></text>
    </g>
    <g id="XMLID_100_4" data-name="XMLID_100_" transform="translate(710 517)">
      <path id="XMLID_99_4" data-name="XMLID_99_" d="M29.688,0C16.881,0,6.5,11.864,6.5,26.5S16.881,53,29.688,53,52.875,41.136,52.875,26.5,42.494,0,29.688,0" transform="translate(-0.5)" fill="#ffd949"/>
      <path id="XMLID_132_4" data-name="XMLID_132_" d="M17.7,22.242C17.7,10.881,9.974,1.516,0,.172A18.527,18.527,0,0,1,2.47,0c11.14,0,20.17,9.958,20.17,22.242S13.609,44.485,2.47,44.485A18.527,18.527,0,0,1,0,44.313C9.974,42.969,17.7,33.6,17.7,22.242" transform="translate(51.429 29.85) rotate(90)" fill="#f4bf1a"/>
      <path id="XMLID_115_4" data-name="XMLID_115_" d="M29.041,5.476h-.077c-.628,0-1.261.031-1.88.091a.781.781,0,0,0-.785.813.883.883,0,0,0,1,.639c.549-.053,1.11-.08,1.667-.08a.866.866,0,0,0,.936-.731.789.789,0,0,0-.859-.731m5.218.787a.913.913,0,0,0-.84.474.7.7,0,0,0,.523.941c.517.159,1.033.345,1.531.553a1,1,0,0,0,1.209-.317.672.672,0,0,0-.389-.984c-.559-.234-1.136-.442-1.718-.621a1.062,1.062,0,0,0-.316-.048m-12.146.558a1.059,1.059,0,0,0-.406.08c-.552.229-1.1.485-1.623.766a.654.654,0,0,0-.259,1.012,1.03,1.03,0,0,0,1.243.211c.469-.251.958-.482,1.452-.686a.673.673,0,0,0,.394-.982.938.938,0,0,0-.8-.4m18.047,2.6a1.011,1.011,0,0,0-.632.212.64.64,0,0,0-.005,1.034,15.208,15.208,0,0,1,1.128,1.025,1.044,1.044,0,0,0,1.263.106.643.643,0,0,0,.13-1.028c-.4-.4-.815-.777-1.246-1.132a1.011,1.011,0,0,0-.637-.216M16.632,10.452a.992.992,0,0,0-.695.267c-.389.387-.764.8-1.111,1.217a.653.653,0,0,0,.242,1.015,1.029,1.029,0,0,0,1.246-.2c.317-.383.657-.756,1.011-1.107a.644.644,0,0,0-.125-1.029,1.029,1.029,0,0,0-.569-.165m27.473,3.755a1.081,1.081,0,0,0-.358.061.687.687,0,0,0-.465.963,14.1,14.1,0,0,1,.611,1.293.958.958,0,0,0,1.137.46.71.71,0,0,0,.564-.926c-.2-.477-.422-.952-.667-1.411a.928.928,0,0,0-.823-.439M13.211,15.5a.907.907,0,0,0-.85.5c-.2.474-.374.961-.523,1.45a.733.733,0,0,0,.653.885.925.925,0,0,0,1.088-.532c.137-.448.3-.9.481-1.33a.708.708,0,0,0-.559-.928,1.066,1.066,0,0,0-.29-.04M45.8,19.809l-.07,0a.8.8,0,0,0-.826.786c.042.443.064.9.064,1.344a.845.845,0,0,0,.9.754.81.81,0,0,0,.9-.707v-.048c0-.486-.023-.976-.069-1.457a.844.844,0,0,0-.894-.675M12.063,21.2a.822.822,0,0,0-.9.723v.016c0,.5.024,1,.072,1.489a.861.861,0,0,0,.966.671.8.8,0,0,0,.824-.787c-.044-.452-.066-.914-.066-1.374a.833.833,0,0,0-.9-.739M45.21,25.56a.883.883,0,0,0-.869.552c-.139.45-.3.9-.485,1.331a.708.708,0,0,0,.558.928.956.956,0,0,0,1.14-.455c.2-.472.376-.959.527-1.447a.734.734,0,0,0-.651-.887,1.018,1.018,0,0,0-.221-.023M13.2,26.888a1.092,1.092,0,0,0-.289.039.709.709,0,0,0-.562.927c.2.475.424.95.67,1.409a.986.986,0,0,0,1.182.377.686.686,0,0,0,.463-.963c-.227-.422-.433-.857-.615-1.293a.906.906,0,0,0-.85-.5m29.139,3.942a.968.968,0,0,0-.744.322c-.318.382-.659.754-1.014,1.105a.643.643,0,0,0,.122,1.029,1.044,1.044,0,0,0,1.264-.1c.39-.387.765-.8,1.115-1.216a.652.652,0,0,0-.24-1.015,1.044,1.044,0,0,0-.5-.126M16.606,31.942a1.027,1.027,0,0,0-.567.165.642.642,0,0,0-.127,1.028c.4.395.816.775,1.248,1.129a1.049,1.049,0,0,0,1.269,0,.64.64,0,0,0,0-1.034c-.391-.321-.773-.665-1.133-1.024a.983.983,0,0,0-.7-.268M37.32,34.888a1.039,1.039,0,0,0-.488.118c-.469.249-.959.479-1.456.683a.673.673,0,0,0-.4.982,1,1,0,0,0,1.205.323c.555-.227,1.1-.484,1.625-.762a.654.654,0,0,0,.262-1.012.961.961,0,0,0-.753-.332m-15.239.694a.939.939,0,0,0-.8.4.673.673,0,0,0,.392.983c.559.232,1.137.44,1.719.617a.968.968,0,0,0,1.155-.428.7.7,0,0,0-.527-.941c-.519-.158-1.035-.343-1.534-.55a1.056,1.056,0,0,0-.406-.08m8.62,1.278a1.009,1.009,0,0,0-.1.005c-.54.051-1.089.077-1.632.077a.847.847,0,0,0-.916.731.809.809,0,0,0,.879.731h.038c.612,0,1.231-.029,1.84-.087a.78.78,0,0,0,.788-.81.852.852,0,0,0-.89-.647" transform="translate(0.22 1.647)" fill="#f4bf1a"/>
      <g id="Group_1052-4" data-name="Group 1052" transform="translate(10.511 37.521)">
        <path id="Path_6056-4" data-name="Path 6056" d="M91.958,374.854v6.629q-.99-.838-1.893-1.771v-6.628C90.666,373.706,91.315,374.311,91.958,374.854Z" transform="translate(-90.065 -373.084)" fill="#dea900"/>
        <path id="Path_6057-4" data-name="Path 6057" d="M161.958,422.445v6.626q-.964-.334-1.893-.74V421.7C160.7,421.979,161.272,422.2,161.958,422.445Z" transform="translate(-151.782 -415.951)" fill="#dea900"/>
        <path id="Path_6058-4" data-name="Path 6058" d="M241.958,439.874V446.5c-.651.022-1.242.022-1.893,0v-6.626C240.7,439.9,241.3,439.9,241.958,439.874Z" transform="translate(-222.316 -431.971)" fill="#dea900"/>
        <path id="Path_6059-4" data-name="Path 6059" d="M321.958,421.7v6.626q-.928.406-1.893.741v-6.626C320.75,422.205,321.325,421.98,321.958,421.7Z" transform="translate(-292.85 -415.951)" fill="#dea900"/>
        <path id="Path_6060-4" data-name="Path 6060" d="M391.958,373.084v6.628q-.9.93-1.893,1.77v-6.628C390.707,374.311,391.357,373.706,391.958,373.084Z" transform="translate(-354.567 -373.084)" fill="#dea900"/>
      </g>
    </g>
  </g>
</svg>
