<svg xmlns="http://www.w3.org/2000/svg" width="210.868" height="207.169" viewBox="0 0 210.868 207.169">
  <g id="comgsoon" transform="translate(-624.176 -465.027)">
    <g id="wallet" transform="translate(620 462.328)">
      <g id="XMLID_100_" transform="translate(55 22.907)">
        <path id="XMLID_99_" d="M25.212,0C14.878,0,6.5,9.574,6.5,21.385S14.878,42.77,25.212,42.77,43.924,33.2,43.924,21.385,35.546,0,25.212,0" transform="translate(-0.5 0)" fill="#ffd949"/>
        <path id="XMLID_132_" d="M18.958,17.7C18.958,8.659,10.682,1.206,0,.137.868.05,1.749,0,2.645,0c11.931,0,21.6,7.924,21.6,17.7s-9.672,17.7-21.6,17.7c-.9,0-1.778-.05-2.645-.137C10.682,34.193,18.958,26.74,18.958,17.7" transform="translate(42.41 17.975) rotate(90)" fill="#f4bf1a"/>
        <path id="XMLID_115_" d="M24.162,5.476h-.056a12.522,12.522,0,0,0-1.367.075.617.617,0,0,0-.571.673.649.649,0,0,0,.726.529,11.062,11.062,0,0,1,1.212-.067.656.656,0,0,0,.68-.605.6.6,0,0,0-.624-.605m3.794.652a.653.653,0,0,0-.611.392.593.593,0,0,0,.38.78,11.168,11.168,0,0,1,1.113.458.677.677,0,0,0,.879-.262.585.585,0,0,0-.283-.815,12.622,12.622,0,0,0-1.249-.514.686.686,0,0,0-.23-.039m-8.831.462a.689.689,0,0,0-.295.066,12.71,12.71,0,0,0-1.18.634.579.579,0,0,0-.189.838.685.685,0,0,0,.9.175,11.285,11.285,0,0,1,1.056-.568.585.585,0,0,0,.286-.814.659.659,0,0,0-.582-.332m13.12,2.154a.679.679,0,0,0-.459.176.575.575,0,0,0,0,.856,11.727,11.727,0,0,1,.82.849.689.689,0,0,0,.918.088.576.576,0,0,0,.095-.852c-.288-.328-.592-.643-.906-.937a.68.68,0,0,0-.463-.179M15.14,9.6a.675.675,0,0,0-.5.221c-.283.321-.555.66-.808,1.008a.579.579,0,0,0,.176.841.684.684,0,0,0,.906-.163c.23-.317.478-.626.735-.917a.577.577,0,0,0-.091-.852A.683.683,0,0,0,15.14,9.6m19.974,3.11a.7.7,0,0,0-.26.05.59.59,0,0,0-.338.8c.164.347.313.708.444,1.071a.666.666,0,0,0,.827.381.6.6,0,0,0,.41-.767c-.144-.4-.307-.789-.485-1.168a.659.659,0,0,0-.6-.364m-22.461,1.07a.653.653,0,0,0-.618.41c-.144.392-.272.8-.38,1.2a.6.6,0,0,0,.475.733.656.656,0,0,0,.791-.441c.1-.371.217-.742.35-1.1a.6.6,0,0,0-.406-.768.687.687,0,0,0-.211-.033m23.693,3.57-.051,0a.622.622,0,0,0-.6.651c.031.367.046.742.046,1.113a.646.646,0,0,0,.652.625.615.615,0,0,0,.652-.585V19.11c0-.4-.017-.808-.05-1.206a.635.635,0,0,0-.65-.559M11.818,18.5a.625.625,0,0,0-.652.6v.013c0,.413.018.828.052,1.233a.64.64,0,0,0,.7.556.621.621,0,0,0,.6-.651c-.032-.374-.048-.757-.048-1.137a.636.636,0,0,0-.652-.612m24.1,3.61a.645.645,0,0,0-.632.457c-.1.372-.219.743-.352,1.1a.6.6,0,0,0,.406.769.664.664,0,0,0,.829-.377c.145-.391.273-.794.383-1.2a.6.6,0,0,0-.473-.735.653.653,0,0,0-.161-.019m-23.272,1.1a.7.7,0,0,0-.21.033.6.6,0,0,0-.408.768c.144.393.308.786.487,1.167a.673.673,0,0,0,.859.312.59.59,0,0,0,.337-.8c-.165-.349-.315-.71-.447-1.071a.652.652,0,0,0-.618-.412m21.185,3.264a.667.667,0,0,0-.541.266c-.231.316-.479.624-.737.915a.576.576,0,0,0,.089.852.688.688,0,0,0,.919-.082c.284-.32.557-.659.81-1.007a.579.579,0,0,0-.174-.841.687.687,0,0,0-.365-.1m-18.708.921a.682.682,0,0,0-.412.137.575.575,0,0,0-.092.852c.288.327.593.642.908.935a.69.69,0,0,0,.923,0,.575.575,0,0,0,0-.856c-.284-.266-.562-.551-.823-.848a.669.669,0,0,0-.506-.222m15.059,2.439a.682.682,0,0,0-.355.1,11.345,11.345,0,0,1-1.058.565.585.585,0,0,0-.288.813.677.677,0,0,0,.876.268,12.515,12.515,0,0,0,1.182-.631.579.579,0,0,0,.191-.838.665.665,0,0,0-.547-.275M19.1,30.407a.66.66,0,0,0-.582.331.585.585,0,0,0,.285.814,12.556,12.556,0,0,0,1.25.511.668.668,0,0,0,.84-.355.594.594,0,0,0-.383-.779,11.116,11.116,0,0,1-1.115-.456.687.687,0,0,0-.295-.066m6.267,1.059a.646.646,0,0,0-.076,0,11.107,11.107,0,0,1-1.187.064.643.643,0,0,0-.666.605.618.618,0,0,0,.639.605h.027a12.494,12.494,0,0,0,1.337-.072A.617.617,0,0,0,26.016,32a.637.637,0,0,0-.647-.536" transform="translate(0.603 2.153)" fill="#f4bf1a"/>
        <g id="Group_1052" data-name="Group 1052" transform="translate(10.831 26.192)">
          <path id="Path_6056" data-name="Path 6056" d="M92.093,374.98v7.1q-1.061-.9-2.028-1.9v-7.1C90.709,373.75,91.4,374.4,92.093,374.98Z" transform="translate(-90.065 -373.084)" fill="#dea900"/>
          <path id="Path_6057" data-name="Path 6057" d="M162.093,422.5v7.1q-1.032-.357-2.028-.792v-7.1C160.742,422,161.358,422.24,162.093,422.5Z" transform="translate(-154.051 -415.542)" fill="#dea900"/>
          <path id="Path_6058" data-name="Path 6058" d="M242.093,439.874v7.1c-.7.024-1.33.024-2.028,0v-7.1C240.75,439.9,241.386,439.9,242.093,439.874Z" transform="translate(-227.178 -431.409)" fill="#dea900"/>
          <path id="Path_6059" data-name="Path 6059" d="M322.093,421.7v7.1q-.994.435-2.028.793v-7.1C320.8,422.241,321.415,422,322.093,421.7Z" transform="translate(-300.305 -415.542)" fill="#dea900"/>
          <path id="Path_6060" data-name="Path 6060" d="M392.093,373.084v7.1q-.966,1-2.028,1.9v-7.1C390.753,374.4,391.448,373.751,392.093,373.084Z" transform="translate(-364.291 -373.084)" fill="#dea900"/>
        </g>
      </g>
      <g id="XMLID_100_2" data-name="XMLID_100_" transform="translate(105 2.699)">
        <path id="XMLID_99_2" data-name="XMLID_99_" d="M24.862,0C14.721,0,6.5,9.4,6.5,20.985S14.721,41.97,24.862,41.97s18.362-9.4,18.362-20.985S35,0,24.862,0" transform="translate(-0.5 0)" fill="#ffd949"/>
        <path id="XMLID_132_2" data-name="XMLID_132_" d="M18.693,17.364C18.693,8.495,10.533,1.183,0,.134.856.049,1.725,0,2.608,0c11.764,0,21.3,7.774,21.3,17.364s-9.537,17.364-21.3,17.364c-.883,0-1.753-.049-2.608-.134,10.533-1.049,18.693-8.361,18.693-17.23" transform="translate(41.724 17.521) rotate(90)" fill="#f4bf1a"/>
        <path id="XMLID_115_2" data-name="XMLID_115_" d="M23.891,5.476h-.055A12.227,12.227,0,0,0,22.5,5.55a.606.606,0,0,0-.559.661.635.635,0,0,0,.71.52,10.8,10.8,0,0,1,1.187-.065A.643.643,0,0,0,24.5,6.07a.593.593,0,0,0-.611-.594m3.715.64a.64.64,0,0,0-.6.385.582.582,0,0,0,.372.766,10.918,10.918,0,0,1,1.09.45.662.662,0,0,0,.861-.257.575.575,0,0,0-.277-.8,12.34,12.34,0,0,0-1.223-.5.67.67,0,0,0-.225-.039m-8.647.454a.673.673,0,0,0-.289.065,12.434,12.434,0,0,0-1.156.623.57.57,0,0,0-.185.823.67.67,0,0,0,.885.172,11.042,11.042,0,0,1,1.034-.558.575.575,0,0,0,.28-.8.645.645,0,0,0-.57-.326M31.807,8.685a.664.664,0,0,0-.45.172.565.565,0,0,0,0,.84,11.5,11.5,0,0,1,.8.833.673.673,0,0,0,.9.086.567.567,0,0,0,.093-.836c-.282-.322-.58-.632-.887-.92a.664.664,0,0,0-.454-.176m-16.749.837a.66.66,0,0,0-.494.217c-.277.315-.544.648-.791.99a.57.57,0,0,0,.172.826.668.668,0,0,0,.887-.16c.226-.311.468-.615.72-.9a.567.567,0,0,0-.089-.837.667.667,0,0,0-.405-.134m19.558,3.053a.684.684,0,0,0-.255.049.58.58,0,0,0-.331.783c.16.341.307.7.435,1.051a.652.652,0,0,0,.809.374.586.586,0,0,0,.4-.753c-.141-.388-.3-.774-.475-1.147a.645.645,0,0,0-.586-.357m-21.993,1.05a.639.639,0,0,0-.6.4c-.141.385-.266.782-.372,1.179a.592.592,0,0,0,.465.72.642.642,0,0,0,.774-.433c.1-.364.213-.729.342-1.082a.585.585,0,0,0-.4-.754.671.671,0,0,0-.206-.033m23.2,3.505-.05,0a.61.61,0,0,0-.588.639c.03.36.045.728.045,1.092a.634.634,0,0,0,.639.613.6.6,0,0,0,.639-.575v-.039c0-.4-.017-.794-.049-1.185a.622.622,0,0,0-.636-.549M11.8,18.263a.613.613,0,0,0-.639.588v.013c0,.405.017.813.051,1.211a.627.627,0,0,0,.687.546.61.61,0,0,0,.586-.64c-.031-.367-.047-.743-.047-1.117a.623.623,0,0,0-.639-.6m23.6,3.544a.632.632,0,0,0-.618.449c-.1.366-.215.729-.345,1.082a.586.586,0,0,0,.4.755.65.65,0,0,0,.811-.37c.142-.384.268-.78.375-1.176a.593.593,0,0,0-.463-.722.638.638,0,0,0-.157-.018m-22.788,1.08a.687.687,0,0,0-.206.032.586.586,0,0,0-.4.754c.141.386.3.772.477,1.146a.658.658,0,0,0,.841.307.579.579,0,0,0,.33-.783c-.162-.343-.309-.7-.438-1.051a.639.639,0,0,0-.6-.4m20.743,3.206a.653.653,0,0,0-.53.262c-.226.31-.469.613-.722.9a.567.567,0,0,0,.087.837.673.673,0,0,0,.9-.081c.278-.314.545-.647.793-.988a.569.569,0,0,0-.171-.826.671.671,0,0,0-.358-.1M15.039,27a.666.666,0,0,0-.4.134.566.566,0,0,0-.09.836c.282.321.581.63.889.918a.674.674,0,0,0,.9,0,.565.565,0,0,0,0-.84c-.279-.261-.55-.541-.806-.833a.654.654,0,0,0-.5-.218m14.746,2.4a.667.667,0,0,0-.348.1,11.1,11.1,0,0,1-1.036.555.576.576,0,0,0-.282.8.662.662,0,0,0,.858.263,12.244,12.244,0,0,0,1.157-.62.57.57,0,0,0,.187-.823.65.65,0,0,0-.536-.27m-10.848.565a.646.646,0,0,0-.57.325.575.575,0,0,0,.279.8,12.271,12.271,0,0,0,1.224.5.654.654,0,0,0,.822-.348.584.584,0,0,0-.375-.765,10.868,10.868,0,0,1-1.092-.448.671.671,0,0,0-.289-.065M25.073,31A.629.629,0,0,0,25,31a10.847,10.847,0,0,1-1.162.062.63.63,0,0,0-.652.594.606.606,0,0,0,.625.594h.027a12.2,12.2,0,0,0,1.31-.071.6.6,0,0,0,.561-.659A.624.624,0,0,0,25.073,31" transform="translate(0.522 2.047)" fill="#f4bf1a"/>
        <g id="Group_1052-2" data-name="Group 1052" transform="translate(10.764 25.623)">
          <path id="Path_6056-2" data-name="Path 6056" d="M92.064,374.953v7q-1.046-.885-2-1.871v-7C90.7,373.741,91.385,374.38,92.064,374.953Z" transform="translate(-90.065 -373.084)" fill="#dea900"/>
          <path id="Path_6057-2" data-name="Path 6057" d="M162.064,422.486v7q-1.018-.352-2-.781v-7C160.732,421.995,161.34,422.233,162.064,422.486Z" transform="translate(-154.176 -415.628)" fill="#dea900"/>
          <path id="Path_6058-2" data-name="Path 6058" d="M242.064,439.874v7c-.687.023-1.312.023-2,0v-7C240.74,439.9,241.368,439.9,242.064,439.874Z" transform="translate(-227.446 -431.528)" fill="#dea900"/>
          <path id="Path_6059-2" data-name="Path 6059" d="M322.064,421.7v7q-.98.429-2,.782v-7C320.788,422.233,321.4,422,322.064,421.7Z" transform="translate(-300.717 -415.628)" fill="#dea900"/>
          <path id="Path_6060-2" data-name="Path 6060" d="M392.064,373.084v7q-.952.982-2,1.869v-7C390.743,374.38,391.429,373.741,392.064,373.084Z" transform="translate(-364.828 -373.084)" fill="#dea900"/>
        </g>
      </g>
      <g id="Group_1056" data-name="Group 1056" transform="translate(50 77.667)">
        <path id="Path_6062" data-name="Path 6062" d="M167.547,117.835h-3.792V102.667A15.183,15.183,0,0,0,148.588,87.5H65.167A15.183,15.183,0,0,0,50,102.667v60.67A15.183,15.183,0,0,0,65.167,178.5h83.421a15.183,15.183,0,0,0,15.167-15.167V148.17h3.792a3.791,3.791,0,0,0,3.792-3.792V121.627A3.791,3.791,0,0,0,167.547,117.835Zm-11.376,45.5a7.592,7.592,0,0,1-7.584,7.584H65.167a7.592,7.592,0,0,1-7.584-7.584v-60.67a7.592,7.592,0,0,1,7.584-7.584h83.421a7.592,7.592,0,0,1,7.584,7.584v15.167h-7.584a15.167,15.167,0,0,0,0,30.335h7.584Zm7.584-22.751H148.588a7.584,7.584,0,0,1,0-15.167h15.167Z" transform="translate(-50 -87.5)" fill="#083072"/>
        <circle id="Ellipse_59" data-name="Ellipse 59" cx="3.792" cy="3.792" r="3.792" transform="translate(96.601 41.71)" fill="#083072"/>
      </g>
      <g id="XMLID_100_3" data-name="XMLID_100_" transform="translate(85 46.806)">
        <path id="XMLID_99_3" data-name="XMLID_99_" d="M30.068,0C17.052,0,6.5,12.059,6.5,26.935S17.052,53.87,30.068,53.87,53.636,41.811,53.636,26.935,43.084,0,30.068,0" transform="translate(-0.5 0)" fill="#ffd949"/>
        <path id="XMLID_132_3" data-name="XMLID_132_" d="M20.327,22.483C20.327,11,11.454,1.532,0,.173A24.128,24.128,0,0,1,2.836,0C15.629,0,26,10.066,26,22.483S15.629,44.966,2.836,44.966A24.128,24.128,0,0,1,0,44.792c11.454-1.359,20.327-10.825,20.327-22.309" transform="translate(52.049 27.284) rotate(90)" fill="#f4bf1a"/>
        <path id="XMLID_115_3" data-name="XMLID_115_" d="M28.62,5.476h-.075a16.731,16.731,0,0,0-1.836.1.832.832,0,0,0-.767.909.872.872,0,0,0,.974.714,14.78,14.78,0,0,1,1.628-.09.883.883,0,0,0,.914-.817.814.814,0,0,0-.839-.817m5.1.88a.877.877,0,0,0-.82.53.8.8,0,0,0,.511,1.053,14.954,14.954,0,0,1,1.495.619.906.906,0,0,0,1.18-.354.791.791,0,0,0-.38-1.1,16.9,16.9,0,0,0-1.677-.694.917.917,0,0,0-.308-.053m-11.86.624a.921.921,0,0,0-.4.089,17.041,17.041,0,0,0-1.585.856.784.784,0,0,0-.253,1.131.917.917,0,0,0,1.214.236,15.133,15.133,0,0,1,1.418-.767.792.792,0,0,0,.385-1.1.885.885,0,0,0-.782-.448M39.477,9.888a.909.909,0,0,0-.617.237.779.779,0,0,0-.005,1.156,15.8,15.8,0,0,1,1.1,1.146.921.921,0,0,0,1.233.119.78.78,0,0,0,.127-1.15c-.386-.443-.8-.869-1.217-1.265a.91.91,0,0,0-.622-.242M16.5,11.039a.9.9,0,0,0-.678.3c-.38.433-.746.891-1.085,1.361a.784.784,0,0,0,.237,1.135.915.915,0,0,0,1.216-.221c.309-.428.641-.845.988-1.238a.781.781,0,0,0-.122-1.151.914.914,0,0,0-.556-.185m26.826,4.2a.936.936,0,0,0-.35.068.8.8,0,0,0-.454,1.076c.22.469.421.956.6,1.446a.893.893,0,0,0,1.11.514.807.807,0,0,0,.551-1.035c-.193-.534-.412-1.065-.651-1.577a.884.884,0,0,0-.8-.491M13.163,16.682a.877.877,0,0,0-.83.554c-.194.53-.365,1.075-.511,1.621a.813.813,0,0,0,.638.99.881.881,0,0,0,1.062-.595c.134-.5.292-1,.47-1.487a.805.805,0,0,0-.546-1.037.918.918,0,0,0-.283-.045M44.984,21.5l-.068,0a.838.838,0,0,0-.806.879c.041.5.062,1,.062,1.5a.87.87,0,0,0,.876.843.827.827,0,0,0,.876-.79v-.053c0-.543-.023-1.091-.067-1.629a.854.854,0,0,0-.873-.754M12.042,23.058a.841.841,0,0,0-.876.808v.018c0,.557.024,1.118.07,1.665a.861.861,0,0,0,.943.75.837.837,0,0,0,.8-.879c-.043-.505-.065-1.022-.065-1.536a.856.856,0,0,0-.876-.826m32.366,4.873a.867.867,0,0,0-.848.617c-.136.5-.294,1-.473,1.488a.806.806,0,0,0,.545,1.038.89.89,0,0,0,1.113-.508c.195-.528.367-1.072.514-1.617a.815.815,0,0,0-.635-.992.873.873,0,0,0-.216-.025M13.152,29.416a.94.94,0,0,0-.282.044.806.806,0,0,0-.549,1.036c.194.531.414,1.062.655,1.576a.9.9,0,0,0,1.154.422.8.8,0,0,0,.452-1.076c-.222-.472-.423-.959-.6-1.446a.876.876,0,0,0-.83-.556M41.6,33.824a.9.9,0,0,0-.726.36c-.31.427-.643.843-.99,1.236a.781.781,0,0,0,.119,1.151.921.921,0,0,0,1.234-.111c.381-.432.747-.889,1.088-1.359a.784.784,0,0,0-.234-1.135.918.918,0,0,0-.491-.141M16.478,35.067a.913.913,0,0,0-.554.185A.779.779,0,0,0,15.8,36.4c.386.441.8.866,1.219,1.263a.923.923,0,0,0,1.239,0,.779.779,0,0,0,0-1.156c-.382-.359-.754-.744-1.106-1.145a.9.9,0,0,0-.679-.3M36.7,38.36a.913.913,0,0,0-.477.132,15.209,15.209,0,0,1-1.421.763.792.792,0,0,0-.386,1.1.907.907,0,0,0,1.177.361,16.78,16.78,0,0,0,1.587-.852.785.785,0,0,0,.256-1.131.891.891,0,0,0-.735-.371m-14.88.776a.886.886,0,0,0-.782.446.792.792,0,0,0,.383,1.1,16.813,16.813,0,0,0,1.679.69.9.9,0,0,0,1.128-.479.8.8,0,0,0-.514-1.052,14.886,14.886,0,0,1-1.5-.615.919.919,0,0,0-.4-.089m8.417,1.429a.862.862,0,0,0-.1.006,14.84,14.84,0,0,1-1.594.086.865.865,0,0,0-.895.817.832.832,0,0,0,.858.817h.037a16.7,16.7,0,0,0,1.8-.1.831.831,0,0,0,.769-.906.857.857,0,0,0-.869-.723" transform="translate(1.02 2.704)" fill="#f4bf1a"/>
        <g id="Group_1052-3" data-name="Group 1052" transform="translate(11.181 36.094)">
          <path id="Path_6056-3" data-name="Path 6056" d="M92.239,375.117v7.612q-1.137-.962-2.174-2.034v-7.611C90.755,373.8,91.5,374.493,92.239,375.117Z" transform="translate(-90.065 -373.084)" fill="#dea900"/>
          <path id="Path_6057-3" data-name="Path 6057" d="M162.239,422.555v7.61q-1.107-.383-2.174-.849V421.7C160.79,422.02,161.451,422.279,162.239,422.555Z" transform="translate(-151.981 -415.097)" fill="#dea900"/>
          <path id="Path_6058-3" data-name="Path 6058" d="M242.239,439.874v7.61c-.747.025-1.426.025-2.174,0v-7.61C240.8,439.9,241.482,439.9,242.239,439.874Z" transform="translate(-222.742 -430.798)" fill="#dea900"/>
          <path id="Path_6059-3" data-name="Path 6059" d="M322.239,421.7v7.61q-1.066.467-2.174.851v-7.61C320.852,422.28,321.512,422.021,322.239,421.7Z" transform="translate(-293.504 -415.097)" fill="#dea900"/>
          <path id="Path_6060-3" data-name="Path 6060" d="M392.239,373.084V380.7q-1.035,1.068-2.174,2.033v-7.611C390.8,374.494,391.548,373.8,392.239,373.084Z" transform="translate(-355.42 -373.084)" fill="#dea900"/>
        </g>
      </g>
      <g id="Group_1055" data-name="Group 1055" transform="translate(68.972 92.835)">
        <path id="Path_6061" data-name="Path 6061" d="M81.271,112.5h87v7.584h-87Z" transform="translate(-81.271 -112.5)" fill="#81b1ff"/>
      </g>
    </g>
    <path id="Path_6108" data-name="Path 6108" d="M10.724-19.964a9.656,9.656,0,0,1,6.132,1.9,9,9,0,0,1,3.22,5.18H15.932a5.422,5.422,0,0,0-2-2.52,5.659,5.659,0,0,0-3.262-.924,5.244,5.244,0,0,0-2.828.784A5.232,5.232,0,0,0,5.88-13.3a7.8,7.8,0,0,0-.7,3.416A7.735,7.735,0,0,0,5.88-6.5a5.232,5.232,0,0,0,1.96,2.24,5.243,5.243,0,0,0,2.828.784A5.659,5.659,0,0,0,13.93-4.4a5.422,5.422,0,0,0,2-2.52h4.144a9,9,0,0,1-3.22,5.18,9.656,9.656,0,0,1-6.132,1.9,9.687,9.687,0,0,1-5-1.274,8.675,8.675,0,0,1-3.36-3.57,11.151,11.151,0,0,1-1.19-5.208,11.213,11.213,0,0,1,1.19-5.236,8.7,8.7,0,0,1,3.346-3.57A9.667,9.667,0,0,1,10.724-19.964Zm21.588-.084a9.949,9.949,0,0,1,5.026,1.288,9.343,9.343,0,0,1,3.556,3.6A10.449,10.449,0,0,1,42.2-9.94a10.527,10.527,0,0,1-1.3,5.236,9.317,9.317,0,0,1-3.556,3.612A9.949,9.949,0,0,1,32.312.2a9.949,9.949,0,0,1-5.026-1.288A9.317,9.317,0,0,1,23.73-4.7a10.527,10.527,0,0,1-1.3-5.236,10.449,10.449,0,0,1,1.3-5.222,9.343,9.343,0,0,1,3.556-3.6A9.949,9.949,0,0,1,32.312-20.048Zm0,3.64a5.849,5.849,0,0,0-3.052.784A5.364,5.364,0,0,0,27.2-13.37a7.518,7.518,0,0,0-.742,3.43A7.518,7.518,0,0,0,27.2-6.51,5.364,5.364,0,0,0,29.26-4.256a5.849,5.849,0,0,0,3.052.784,5.849,5.849,0,0,0,3.052-.784A5.364,5.364,0,0,0,37.422-6.51a7.518,7.518,0,0,0,.742-3.43,7.518,7.518,0,0,0-.742-3.43,5.364,5.364,0,0,0-2.058-2.254A5.849,5.849,0,0,0,32.312-16.408Zm34.16-3.136V0h-3.92V-13.636L57.54,0H54.124L49.112-13.58V0H45.164V-19.544h4.788l5.936,14.7,5.824-14.7ZM74-19.768V0H70.056V-19.768ZM94.332,0H90.384L81.536-13.44V0H77.588V-19.768h3.948L90.384-6.216V-19.768h3.948Zm12.74-19.964a9.736,9.736,0,0,1,5.992,1.778,7.935,7.935,0,0,1,3.052,4.8h-4.144a4.707,4.707,0,0,0-1.862-2.142,5.553,5.553,0,0,0-3.01-.8,5.794,5.794,0,0,0-3.024.784,5.291,5.291,0,0,0-2.044,2.24,7.55,7.55,0,0,0-.728,3.416A6.71,6.71,0,0,0,102.97-5.04,6.009,6.009,0,0,0,107.52-3.3a5.555,5.555,0,0,0,3.654-1.26,5.853,5.853,0,0,0,1.974-3.5h-6.692v-2.828h10v3.808a9.316,9.316,0,0,1-1.638,3.612,8.811,8.811,0,0,1-3.192,2.646A9.92,9.92,0,0,1,107.1.168a10.16,10.16,0,0,1-5.138-1.274,8.775,8.775,0,0,1-3.444-3.556A10.919,10.919,0,0,1,97.3-9.884a10.919,10.919,0,0,1,1.218-5.222,8.9,8.9,0,0,1,3.43-3.57A10,10,0,0,1,107.072-19.964ZM139.1-5.4a5.36,5.36,0,0,1-.756,2.786,5.43,5.43,0,0,1-2.24,2.044A7.766,7.766,0,0,1,132.5.2a9.373,9.373,0,0,1-3.752-.714A6.344,6.344,0,0,1,126.1-2.576a5.937,5.937,0,0,1-1.134-3.136h4.2a3.209,3.209,0,0,0,.966,2,3.03,3.03,0,0,0,2.2.8,2.558,2.558,0,0,0,1.89-.658,2.293,2.293,0,0,0,.658-1.694,2.219,2.219,0,0,0-.532-1.526A3.882,3.882,0,0,0,133-7.756q-.812-.364-2.24-.84a22.143,22.143,0,0,1-3.024-1.218,5.59,5.59,0,0,1-2-1.75,5.014,5.014,0,0,1-.826-3,4.872,4.872,0,0,1,1.834-4.018,7.538,7.538,0,0,1,4.858-1.47,7.694,7.694,0,0,1,5,1.512,5.707,5.707,0,0,1,2.114,4.032h-4.256a2.964,2.964,0,0,0-.9-1.75,2.782,2.782,0,0,0-1.988-.686,2.622,2.622,0,0,0-1.764.574,2.07,2.07,0,0,0-.672,1.666,2.071,2.071,0,0,0,.518,1.442,3.953,3.953,0,0,0,1.316.938,21.6,21.6,0,0,0,2.17.812,28.852,28.852,0,0,1,3.094,1.26,5.452,5.452,0,0,1,2.03,1.764A5.184,5.184,0,0,1,139.1-5.4Zm12.18-14.644a9.949,9.949,0,0,1,5.026,1.288,9.343,9.343,0,0,1,3.556,3.6,10.449,10.449,0,0,1,1.3,5.222,10.527,10.527,0,0,1-1.3,5.236,9.317,9.317,0,0,1-3.556,3.612A9.949,9.949,0,0,1,151.284.2a9.949,9.949,0,0,1-5.026-1.288A9.317,9.317,0,0,1,142.7-4.7a10.527,10.527,0,0,1-1.3-5.236,10.449,10.449,0,0,1,1.3-5.222,9.343,9.343,0,0,1,3.556-3.6A9.949,9.949,0,0,1,151.284-20.048Zm0,3.64a5.849,5.849,0,0,0-3.052.784,5.364,5.364,0,0,0-2.058,2.254,7.518,7.518,0,0,0-.742,3.43,7.518,7.518,0,0,0,.742,3.43,5.364,5.364,0,0,0,2.058,2.254,5.849,5.849,0,0,0,3.052.784,5.849,5.849,0,0,0,3.052-.784,5.364,5.364,0,0,0,2.058-2.254,7.518,7.518,0,0,0,.742-3.43,7.518,7.518,0,0,0-.742-3.43,5.364,5.364,0,0,0-2.058-2.254A5.849,5.849,0,0,0,151.284-16.408Zm22.12-3.64a9.949,9.949,0,0,1,5.026,1.288,9.343,9.343,0,0,1,3.556,3.6,10.449,10.449,0,0,1,1.3,5.222,10.527,10.527,0,0,1-1.3,5.236,9.317,9.317,0,0,1-3.556,3.612A9.949,9.949,0,0,1,173.4.2a9.949,9.949,0,0,1-5.026-1.288A9.317,9.317,0,0,1,164.822-4.7a10.527,10.527,0,0,1-1.3-5.236,10.449,10.449,0,0,1,1.3-5.222,9.343,9.343,0,0,1,3.556-3.6A9.949,9.949,0,0,1,173.4-20.048Zm0,3.64a5.849,5.849,0,0,0-3.052.784,5.364,5.364,0,0,0-2.058,2.254,7.518,7.518,0,0,0-.742,3.43,7.518,7.518,0,0,0,.742,3.43,5.364,5.364,0,0,0,2.058,2.254,5.849,5.849,0,0,0,3.052.784,5.849,5.849,0,0,0,3.052-.784,5.364,5.364,0,0,0,2.058-2.254,7.518,7.518,0,0,0,.742-3.43,7.518,7.518,0,0,0-.742-3.43,5.364,5.364,0,0,0-2.058-2.254A5.849,5.849,0,0,0,173.4-16.408ZM203,0h-3.948L190.2-13.44V0h-3.948V-19.768H190.2l8.848,13.552V-19.768H203Zm9.044-20.58-.5,14h-3.332l-.5-14Zm-.028,16.464V0H207.76V-4.116Z" transform="translate(623 672)" fill="#1f4788"/>
  </g>
</svg>
