<svg xmlns="http://www.w3.org/2000/svg" width="15.164" height="13" viewBox="0 0 15.164 13">
  <g id="comment-black-oval-bubble-shape" transform="translate(0 -36.507)">
    <path id="Path_5617" data-name="Path 5617" d="M14.149,39.2A6.86,6.86,0,0,0,11.39,37.23a9.837,9.837,0,0,0-3.808-.723,10.062,10.062,0,0,0-2.945.427,8.236,8.236,0,0,0-2.42,1.155A5.773,5.773,0,0,0,.6,39.82a4.031,4.031,0,0,0-.6,2.1A4.106,4.106,0,0,0,.766,44.3,6.214,6.214,0,0,0,2.86,46.162a5.379,5.379,0,0,1-.22.643q-.127.3-.228.5a3.438,3.438,0,0,1-.275.432q-.173.237-.262.334l-.292.322q-.2.224-.262.292a.592.592,0,0,0-.068.076l-.059.072-.051.076q-.042.064-.038.08a.226.226,0,0,1-.017.084.112.112,0,0,0,0,.1v.008a.425.425,0,0,0,.148.245A.331.331,0,0,0,1.5,49.5a6.351,6.351,0,0,0,.965-.186A9.249,9.249,0,0,0,6.355,47.27a11.577,11.577,0,0,0,1.227.068,9.834,9.834,0,0,0,3.808-.724,6.858,6.858,0,0,0,2.759-1.971,4.152,4.152,0,0,0,0-5.441Z" transform="translate(0 0)" fill="#464646"/>
  </g>
</svg>
