<svg xmlns="http://www.w3.org/2000/svg" width="19.584" height="23.969" viewBox="0 0 19.584 23.969">
  <g id="delete" transform="translate(0.265 0.251)">
    <path id="Path_6015" data-name="Path 6015" d="M222.948,154.7a.55.55,0,0,0-.55.55v10.388a.55.55,0,0,0,1.1,0V155.253A.55.55,0,0,0,222.948,154.7Zm0,0" transform="translate(-210.178 -146.202)" fill="#ff6d62" stroke="#ff6d62" stroke-width="0.5"/>
    <path id="Path_6016" data-name="Path 6016" d="M104.948,154.7a.55.55,0,0,0-.55.55v10.388a.55.55,0,0,0,1.1,0V155.253A.55.55,0,0,0,104.948,154.7Zm0,0" transform="translate(-98.664 -146.202)" fill="#ff6d62" stroke="#ff6d62" stroke-width="0.5"/>
    <path id="Path_6017" data-name="Path 6017" d="M1.558,6.986V20.527a3.032,3.032,0,0,0,.806,2.091,2.707,2.707,0,0,0,1.964.849h10.4a2.706,2.706,0,0,0,1.964-.849,3.032,3.032,0,0,0,.806-2.091V6.986a2.1,2.1,0,0,0-.539-4.129H14.144V2.17A2.159,2.159,0,0,0,11.968,0H7.087A2.159,2.159,0,0,0,4.91,2.17v.687H2.1a2.1,2.1,0,0,0-.539,4.129ZM14.727,22.368H4.328a1.741,1.741,0,0,1-1.671-1.841V7.034H16.4V20.527A1.741,1.741,0,0,1,14.727,22.368ZM6.01,2.17A1.059,1.059,0,0,1,7.087,1.1h4.88A1.059,1.059,0,0,1,13.045,2.17v.687H6.01ZM2.1,3.956H16.958a.989.989,0,0,1,0,1.979H2.1a.989.989,0,0,1,0-1.979Zm0,0" transform="translate(0 0)" fill="#ff6d62" stroke="#ff6d62" stroke-width="0.5"/>
    <path id="Path_6018" data-name="Path 6018" d="M163.948,154.7a.55.55,0,0,0-.55.55v10.388a.55.55,0,0,0,1.1,0V155.253A.55.55,0,0,0,163.948,154.7Zm0,0" transform="translate(-154.421 -146.202)" fill="#ff6d62" stroke="#ff6d62" stroke-width="0.5"/>
  </g>
</svg>
