<svg xmlns="http://www.w3.org/2000/svg" width="308" height="308" viewBox="0 0 308 308">
  <g id="Group_1058" data-name="Group 1058" transform="translate(-462 -902.508)">
    <circle id="Ellipse_60" data-name="Ellipse 60" cx="154" cy="154" r="154" transform="translate(462 902.508)" fill="#f5f9ff"/>
    <circle id="Ellipse_61" data-name="Ellipse 61" cx="142" cy="142" r="142" transform="translate(472 913.508)" fill="#e2ecfd"/>
    <g id="report" transform="translate(546 985.602)">
      <path id="Path_6080" data-name="Path 6080" d="M65.769,288.884A2.884,2.884,0,1,1,62.884,286,2.884,2.884,0,0,1,65.769,288.884Zm0,0" transform="translate(-42.694 -203.509)" fill="#1f4788"/>
      <path id="Path_6090" data-name="Path 6090" d="M65.769,288.884A2.884,2.884,0,1,1,62.884,286,2.884,2.884,0,0,1,65.769,288.884Zm0,0" transform="translate(-42.694 -239.509)" fill="#1f4788"/>
      <path id="Path_6094" data-name="Path 6094" d="M65.769,288.884A2.884,2.884,0,1,1,62.884,286,2.884,2.884,0,0,1,65.769,288.884Zm0,0" transform="translate(-42.694 -256.509)" fill="#1f4788"/>
      <path id="Path_6081" data-name="Path 6081" d="M65.769,348.884A2.884,2.884,0,1,1,62.884,346,2.884,2.884,0,0,1,65.769,348.884Zm0,0" transform="translate(-42.694 -246.203)" fill="#1f4788"/>
      <path id="Path_6091" data-name="Path 6091" d="M65.769,348.884A2.884,2.884,0,1,1,62.884,346,2.884,2.884,0,0,1,65.769,348.884Zm0,0" transform="translate(-42.694 -282.203)" fill="#1f4788"/>
      <path id="Path_6082" data-name="Path 6082" d="M65.769,408.884A2.884,2.884,0,1,1,62.884,406,2.884,2.884,0,0,1,65.769,408.884Zm0,0" transform="translate(-42.694 -288.897)" fill="#1f4788"/>
      <path id="Path_6083" data-name="Path 6083" d="M8.653,147.677h95.759a8.662,8.662,0,0,0,8.653-8.653V31.727a2.9,2.9,0,0,0-.845-2.039L83.377.845c-.018-.018-.038-.034-.056-.051-.05-.047-.1-.095-.152-.139C83.146.638,83.121.621,83.1.6c-.051-.039-.1-.079-.155-.115-.019-.014-.039-.024-.06-.036-.06-.038-.121-.077-.184-.11L82.658.322c-.07-.037-.141-.071-.214-.1-.009,0-.019-.007-.027-.01-.078-.032-.158-.061-.239-.086L82.149.117c-.08-.023-.16-.044-.243-.061L81.832.045c-.068-.011-.136-.024-.206-.03A2.732,2.732,0,0,0,81.338,0H8.653A8.662,8.662,0,0,0,0,8.653V139.024A8.662,8.662,0,0,0,8.653,147.677ZM84.222,9.848l18.995,18.995H84.222ZM5.769,8.653A2.887,2.887,0,0,1,8.653,5.769h69.8V31.727a2.884,2.884,0,0,0,2.884,2.884H107.3V139.024a2.887,2.887,0,0,1-2.884,2.884H8.653a2.887,2.887,0,0,1-2.884-2.884Zm0,0" fill="#1f4788"/>
      <path id="Path_6085" data-name="Path 6085" d="M100,288.884a2.884,2.884,0,0,0,2.884,2.884h61.147a2.884,2.884,0,0,0,0-5.769H102.884A2.884,2.884,0,0,0,100,288.884Zm0,0" transform="translate(-71.157 -203.509)" fill="#1f4788"/>
      <path id="Path_6089" data-name="Path 6089" d="M100,288.884a2.884,2.884,0,0,0,2.884,2.884h61.147a2.884,2.884,0,0,0,0-5.769H102.884A2.884,2.884,0,0,0,100,288.884Zm0,0" transform="translate(-71.157 -239.509)" fill="#1f4788"/>
      <path id="Path_6093" data-name="Path 6093" d="M100,288.884c0,1.593.654,2.884,1.462,2.884h31c.808,0,1.462-1.291,1.462-2.884S133.265,286,132.458,286h-31C100.654,286,100,287.291,100,288.884Zm0,0" transform="translate(-71.157 -256.509)" fill="#1f4788"/>
      <path id="Path_6086" data-name="Path 6086" d="M164.032,346H102.884a2.884,2.884,0,0,0,0,5.769h61.147a2.884,2.884,0,0,0,0-5.769Zm0,0" transform="translate(-71.157 -246.203)" fill="#1f4788"/>
      <path id="Path_6092" data-name="Path 6092" d="M164.032,346H102.884a2.884,2.884,0,0,0,0,5.769h61.147a2.884,2.884,0,0,0,0-5.769Zm0,0" transform="translate(-71.157 -282.203)" fill="#1f4788"/>
      <path id="Path_6087" data-name="Path 6087" d="M164.032,406H102.884a2.884,2.884,0,0,0,0,5.769h61.147a2.884,2.884,0,0,0,0-5.769Zm0,0" transform="translate(-71.157 -288.897)" fill="#1f4788"/>
      <path id="Path_6088" data-name="Path 6088" d="M443.537,0A11.551,11.551,0,0,0,432,11.537V121.718a3.084,3.084,0,0,0,.184,1.013l8.653,23.074a2.884,2.884,0,0,0,5.4,0l8.653-23.074a3.074,3.074,0,0,0,.184-1.013V11.537A11.534,11.534,0,0,0,443.537,0Zm-5.769,23.074h11.537v5.769H437.769Zm0,11.537h11.537v84.222H437.769Zm5.769-28.843a5.768,5.768,0,0,1,5.769,5.769v5.769H437.769V11.537A5.775,5.775,0,0,1,443.537,5.769Zm0,130.809L439.046,124.6h8.982Zm0,0" transform="translate(-307.398 0)" fill="#1f4788"/>
    </g>
  </g>
</svg>
