<svg xmlns="http://www.w3.org/2000/svg" width="111.877" height="261" viewBox="0 0 111.877 261">
  <g id="ethereum" transform="translate(0 82)">
    <g id="Group_1095" data-name="Group 1095" transform="translate(1.88 -82)">
      <path id="Path_6182" data-name="Path 6182" d="M58.772,119.51,4.715,93.9,58.772,0l54.059,93.9Zm0,0" transform="translate(-4.715 0)" fill="#7ca0d9"/>
      <path id="Path_6183" data-name="Path 6183" d="M140.281,0V119.51L194.346,93.9Zm0,0" transform="translate(-86.23 0)" fill="#1f4788"/>
      <path id="Path_6185" data-name="Path 6185" d="M58.772,175.059,4.715,199.147l54.057,25.609,54.059-25.609Zm0,0" transform="translate(-4.715 -105.246)" fill="#4a6faf"/>
      <path id="Path_6186" data-name="Path 6186" d="M194.346,199.147l-54.065-24.088v49.7Zm0,0" transform="translate(-86.23 -105.246)" fill="#152d53"/>
    </g>
    <g id="Group_1096" data-name="Group 1096" transform="translate(0 81.234)">
      <path id="Path_6184" data-name="Path 6184" d="M55.938,364.614,0,266.848l55.938,26.613,55.939-26.613Zm0,0" transform="translate(0 -266.848)" fill="#6487c3"/>
      <path id="Path_6187" data-name="Path 6187" d="M196.226,266.848l-55.945,26.613v71.152Zm0,0" transform="translate(-84.35 -266.848)" fill="#1f4788"/>
    </g>
    <g id="Group_1097" data-name="Group 1097" transform="translate(6.738 47.848)">
      <path id="Path_6196" data-name="Path 6196" d="M2.051-39.526H19.189v7.91h-6.86v7.5H18.75v7.52H12.329V-7.91h7.544V0H2.051Z" transform="translate(10.262 36.18)" fill="#fff"/>
      <path id="Path_6195" data-name="Path 6195" d="M1.969-37.945H18.422v7.594H11.836v7.2H18v7.219H11.836v8.344h7.242V0H1.969Z" transform="translate(10.262 35.18)" fill="#464646"/>
      <path id="Path_6194" data-name="Path 6194" d="M2.051-39.526H9.326a55.624,55.624,0,0,1,9.851.562,6.781,6.781,0,0,1,4.2,2.869Q25-33.789,25-28.735q0,4.614-1.147,6.2t-4.517,1.9a7.722,7.722,0,0,1,4.1,2.026,6.051,6.051,0,0,1,1.306,2.332A36.824,36.824,0,0,1,25-10.425V0H15.454V-13.135q0-3.174-.5-3.931t-2.625-.757V0H2.051Zm10.278,6.763v8.789a4.524,4.524,0,0,0,2.429-.476q.7-.476.7-3.088v-2.173a3.3,3.3,0,0,0-.671-2.466A3.819,3.819,0,0,0,12.329-32.764Z" transform="translate(35.262 36.18)" fill="#fff"/>
      <path id="Path_6193" data-name="Path 6193" d="M1.969-37.945H8.953a53.4,53.4,0,0,1,9.457.539,6.51,6.51,0,0,1,4.031,2.754Q24-32.437,24-27.586q0,4.43-1.1,5.953T18.563-19.8A7.413,7.413,0,0,1,22.5-17.859a5.809,5.809,0,0,1,1.254,2.238A35.351,35.351,0,0,1,24-10.008V0H14.836V-12.609q0-3.047-.48-3.773t-2.52-.727V0H1.969Zm9.867,6.492v8.438a4.343,4.343,0,0,0,2.332-.457q.668-.457.668-2.965v-2.086a3.163,3.163,0,0,0-.645-2.367A3.666,3.666,0,0,0,11.836-31.453Z" transform="translate(35.262 35.18)" fill="#464646"/>
      <path id="Path_6192" data-name="Path 6192" d="M26.05-22.29H15.771v-6.885a12.356,12.356,0,0,0-.33-3.748,1.415,1.415,0,0,0-1.453-.745,1.519,1.519,0,0,0-1.611.9,13.745,13.745,0,0,0-.342,3.906V-10.5a12.813,12.813,0,0,0,.342,3.76,1.462,1.462,0,0,0,1.538.879,1.445,1.445,0,0,0,1.5-.879,14.305,14.305,0,0,0,.354-4.126V-15.82H26.05v1.538q0,6.128-.867,8.691A8.884,8.884,0,0,1,21.35-1.1,13.137,13.137,0,0,1,14.038.83,15.147,15.147,0,0,1,6.592-.806,7.953,7.953,0,0,1,2.71-5.334a29.722,29.722,0,0,1-.952-8.7V-25.586a51.347,51.347,0,0,1,.293-6.409A8.971,8.971,0,0,1,3.8-36.108a9.733,9.733,0,0,1,4.028-3.113,14.552,14.552,0,0,1,5.92-1.135,14.473,14.473,0,0,1,7.5,1.758,8.428,8.428,0,0,1,3.882,4.382,26.382,26.382,0,0,1,.928,8.167Z" transform="translate(66.262 36.18)" fill="#fff"/>
      <path id="Path_6191" data-name="Path 6191" d="M25.008-21.4H15.141v-6.609a11.861,11.861,0,0,0-.316-3.6,1.358,1.358,0,0,0-1.395-.715,1.458,1.458,0,0,0-1.547.867,13.2,13.2,0,0,0-.328,3.75v17.625a12.3,12.3,0,0,0,.328,3.609,1.4,1.4,0,0,0,1.477.844A1.388,1.388,0,0,0,14.8-6.469a13.733,13.733,0,0,0,.34-3.961v-4.758h9.867v1.477a29.088,29.088,0,0,1-.832,8.344A8.528,8.528,0,0,1,20.5-1.055,12.612,12.612,0,0,1,13.477.8,14.541,14.541,0,0,1,6.328-.773,7.635,7.635,0,0,1,2.6-5.121a28.533,28.533,0,0,1-.914-8.355V-24.562a49.293,49.293,0,0,1,.281-6.152,8.612,8.612,0,0,1,1.676-3.949,9.344,9.344,0,0,1,3.867-2.988,13.97,13.97,0,0,1,5.684-1.09,13.894,13.894,0,0,1,7.2,1.688,8.091,8.091,0,0,1,3.727,4.207,25.327,25.327,0,0,1,.891,7.84Z" transform="translate(66.262 35.18)" fill="#464646"/>
    </g>
  </g>
</svg>
