<svg id="ethereum" xmlns="http://www.w3.org/2000/svg" width="140.283" height="256" viewBox="0 0 140.283 256">
  <path id="Path_6182" data-name="Path 6182" d="M72.5,149.984,4.715,117.845,72.5,0l67.783,117.845Zm0,0" transform="translate(-2.355)" fill="#7ca0d9"/>
  <path id="Path_6183" data-name="Path 6183" d="M140.281,0V149.984l67.851-32.139Zm0,0" transform="translate(-70.209)" fill="#1f4788"/>
  <path id="Path_6184" data-name="Path 6184" d="M70.141,389.544,0,266.848l70.141,33.4,70.143-33.4Zm0,0" transform="translate(0 -133.544)" fill="#6487c3"/>
  <path id="Path_6185" data-name="Path 6185" d="M72.5,175.059,4.715,205.289,72.5,237.428l67.783-32.139Zm0,0" transform="translate(-2.355 -87.557)" fill="#4a6faf"/>
  <path id="Path_6186" data-name="Path 6186" d="M208.133,205.289l-67.851-30.231v62.369Zm0,0" transform="translate(-70.209 -87.557)" fill="#152d53"/>
  <path id="Path_6187" data-name="Path 6187" d="M210.492,266.848l-70.211,33.4v89.3Zm0,0" transform="translate(-70.209 -133.544)" fill="#1f4788"/>
</svg>
