<svg xmlns="http://www.w3.org/2000/svg" width="308" height="308" viewBox="0 0 308 308">
  <g id="Group_1058" data-name="Group 1058" transform="translate(-462 -902.508)">
    <circle id="Ellipse_60" data-name="Ellipse 60" cx="154" cy="154" r="154" transform="translate(462 902.508)" fill="#f5f9ff"/>
    <circle id="Ellipse_61" data-name="Ellipse 61" cx="142" cy="142" r="142" transform="translate(472 913.508)" fill="#e2ecfd"/>
    <g id="contract" transform="translate(544.502 983.492)">
      <path id="Path_6063" data-name="Path 6063" d="M281.291,101.544a7.462,7.462,0,0,0-13.672-1.79l-1.243,2.163a2.486,2.486,0,0,0-3.38.9l-6.314,10.762-2.163-1.243a2.484,2.484,0,1,0-2.486,4.3l2.163,1.243L233.068,154.49l-5.22,13.946-2.486,4.647a7.458,7.458,0,0,0,.4,8.054L220.167,188l-1.566-3.926a4.972,4.972,0,0,0-8.875-.7l-.895,1.516-.845-9.943a4.972,4.972,0,0,0-9.67-1.168L192.2,192.125a2.485,2.485,0,0,0,1.566,3.133,2.151,2.151,0,0,0,.771.2,2.486,2.486,0,0,0,2.362-1.69l6.089-18.345.87,10.091a4.972,4.972,0,0,0,9.222,2.139l.92-1.517,1.541,3.9a4.971,4.971,0,0,0,8.5,1.267l5.792-7.332a7.657,7.657,0,0,0,1.964.249,7.458,7.458,0,0,0,6.487-3.68l2.486-4.151,9.471-11.509L271.6,127.818l2.163,1.243a2.492,2.492,0,0,1,.92,3.406l-9.943,17.227a2.468,2.468,0,1,0,4.2,2.585l9.943-17.227a7.455,7.455,0,0,0-2.735-10.192l-2.163-1.243,6.214-10.763a2.487,2.487,0,0,0-.895-3.38l1.243-2.163A7.455,7.455,0,0,0,281.291,101.544Zm-9.371.7a2.485,2.485,0,0,1,1.517-1.168,2.61,2.61,0,0,1,1.889.249,2.488,2.488,0,0,1,1.169,1.516,2.61,2.61,0,0,1-.249,1.889L275,106.888l-4.326-2.486Zm-33.881,69.4-1.243-.721-3.679-2.139,3.53-9.445,7.83,4.524Zm-7.457,7.183a2.484,2.484,0,0,1-.745-3.256l1.243-2.162,4.325,2.486-1.243,2.137a2.485,2.485,0,0,1-3.579.8Zm16.729-19.04-8.6-4.971L258.6,120.361l8.6,4.971Zm22.372-38.754-8.6-4.972,4.972-8.6,8.6,4.971Zm0,0" transform="translate(-132.395 -66.196)" fill="#1f4788"/>
      <path id="Path_6066" data-name="Path 6066" d="M139.115,53.011a2.486,2.486,0,1,0,0-4.971H74.486A2.486,2.486,0,0,0,72,50.525v9.943a2.485,2.485,0,0,0,2.486,2.486h64.629a2.486,2.486,0,1,0,0-4.971H76.971V53.011Zm0,0" transform="translate(-49.628 -33.125)" fill="#1f4788"/>
      <path id="Path_6067" data-name="Path 6067" d="M98.486,112.039a2.486,2.486,0,1,0,0,4.971H148.2a2.486,2.486,0,0,0,0-4.971Zm0,0" transform="translate(-66.171 -77.239)" fill="#1f4788"/>
      <path id="Path_6068" data-name="Path 6068" d="M185.172,168.039H130.486a2.486,2.486,0,1,0,0,4.971h54.687a2.486,2.486,0,1,0,0-4.971Zm0,0" transform="translate(-111.228 -115.838)" fill="#1f4788"/>
      <path id="Path_6069" data-name="Path 6069" d="M110.686,218.525a2.486,2.486,0,0,0-2.486-2.486H58.486a2.486,2.486,0,0,0,0,4.972H108.2A2.485,2.485,0,0,0,110.686,218.525Zm0,0" transform="translate(-38.6 -148.924)" fill="#1f4788"/>
      <path id="Path_6074" data-name="Path 6074" d="M21.054,0C32.682,0,32.807,6.468,45.2,15.3S32.682,39.1,21.054,39.1,0,30.348,0,19.55,9.426,0,21.054,0Z" transform="translate(52.335 102.826)" fill="#e2ecfe"/>
      <path id="Path_6075" data-name="Path 6075" d="M110.686,218.525a2.486,2.486,0,0,0-2.486-2.486H58.486a2.486,2.486,0,0,0,0,4.972H108.2A2.485,2.485,0,0,0,110.686,218.525Zm0,0" transform="translate(-38.6 -115.59)" fill="#1f4788"/>
      <path id="Path_6079" data-name="Path 6079" d="M98.486,112.039a2.486,2.486,0,1,0,0,4.971H148.2a2.486,2.486,0,0,0,0-4.971Zm0,0" transform="translate(-77.171 16.097)" fill="#1f4788"/>
      <path id="Path_6070" data-name="Path 6070" d="M267.886,216.039h-17.4a2.486,2.486,0,0,0,0,4.972h17.4a2.486,2.486,0,1,0,0-4.972Zm0,0" transform="translate(-170.942 -148.924)" fill="#1f4788"/>
      <path id="Path_6071" data-name="Path 6071" d="M83.343,261.011a2.486,2.486,0,0,0,0-4.971H58.486a2.486,2.486,0,1,0,0,4.971Zm0,0" transform="translate(-38.6 -176.495)" fill="#1f4788"/>
      <path id="Path_6078" data-name="Path 6078" d="M83.343,261.011a2.486,2.486,0,0,0,0-4.971H58.486a2.486,2.486,0,1,0,0,4.971Zm0,0" transform="translate(-38.6 -143.161)" fill="#1f4788"/>
      <path id="Path_6072" data-name="Path 6072" d="M170.486,261.011h17.4a2.486,2.486,0,1,0,0-4.971h-17.4a2.486,2.486,0,0,0,0,4.971Zm0,0" transform="translate(-115.799 -176.495)" fill="#1f4788"/>
      <path id="Path_6077" data-name="Path 6077" d="M170.486,261.011h17.4a2.486,2.486,0,1,0,0-4.971h-17.4a2.486,2.486,0,0,0,0,4.971Zm0,0" transform="translate(-115.799 -143.161)" fill="#1f4788"/>
      <path id="Path_6073" data-name="Path 6073" d="M111.859,114.384a2.486,2.486,0,0,0-2.486,2.486v24.858a2.485,2.485,0,0,1-2.486,2.486H7.457a2.485,2.485,0,0,1-2.486-2.486V7.5A2.486,2.486,0,0,1,7.457,5.011h99.43A2.486,2.486,0,0,1,109.373,7.5V54.179a2.486,2.486,0,0,0,4.972,0V7.5A7.458,7.458,0,0,0,106.887.039H7.457A7.458,7.458,0,0,0,0,7.5V141.727a7.457,7.457,0,0,0,7.457,7.457h99.43a7.457,7.457,0,0,0,7.457-7.457V116.869A2.486,2.486,0,0,0,111.859,114.384Zm0,0" transform="translate(0 -0.039)" fill="#1f4788"/>
    </g>
  </g>
</svg>
