<svg xmlns="http://www.w3.org/2000/svg" width="21.809" height="13" viewBox="0 0 21.809 13">
  <g id="eye" transform="translate(0 -98.725)">
    <path id="Path_5618" data-name="Path 5618" d="M10.9,98.725c-4.167,0-7.945,2.28-10.734,5.983a.863.863,0,0,0,0,1.031c2.788,3.707,6.567,5.987,10.734,5.987s7.945-2.28,10.734-5.983a.863.863,0,0,0,0-1.031C18.85,101,15.071,98.725,10.9,98.725Zm.3,11.077a4.587,4.587,0,1,1,4.278-4.278A4.59,4.59,0,0,1,11.2,109.8Zm-.138-2.115a2.47,2.47,0,1,1,2.306-2.306A2.466,2.466,0,0,1,11.065,107.688Z" fill="#464646"/>
  </g>
</svg>
