<svg xmlns="http://www.w3.org/2000/svg" width="142.447" height="39.026" viewBox="0 0 142.447 39.026">
  <g id="Group_1080" data-name="Group 1080" transform="translate(-295.441 -7)">
    <g id="Group_1077" data-name="Group 1077" transform="translate(295.441 7)">
      <path id="Path_12" data-name="Path 12" d="M297.035,931.574l-13.1,7.558a4.4,4.4,0,0,1-4.4,0l-13.1-7.558a4.4,4.4,0,0,1-2.2-3.809V912.652a4.4,4.4,0,0,1,2.2-3.809l13.1-7.559a4.4,4.4,0,0,1,4.4,0l13.1,7.559a4.4,4.4,0,0,1,2.2,3.809v15.114A4.4,4.4,0,0,1,297.035,931.574Z" transform="translate(-264.247 -900.695)" fill="#1f4788" fill-rule="evenodd"/>
      <ellipse id="Ellipse_8" data-name="Ellipse 8" cx="2.019" cy="2.019" rx="2.019" ry="2.019" transform="translate(15.475 17.494)" fill="#fff"/>
      <path id="Path_13" data-name="Path 13" d="M295.9,945.134a2.043,2.043,0,0,0-2.037,2.032V960.4a4.4,4.4,0,0,0,4.075-.071V947.166A2.043,2.043,0,0,0,295.9,945.134Z" transform="translate(-278.34 -921.843)" fill="#fff" fill-rule="evenodd"/>
    </g>
    <g id="Group_1078" data-name="Group 1078" transform="translate(335.831 16.797)">
      <g id="Group_19" data-name="Group 19" transform="translate(0 0)">
        <ellipse id="Ellipse_9" data-name="Ellipse 9" cx="1.687" cy="1.687" rx="1.687" ry="1.687" transform="matrix(0.924, -0.383, 0.383, 0.924, 0, 1.291)" fill="#1f4788"/>
        <path id="Path_14" data-name="Path 14" d="M343.911,929.961a1.741,1.741,0,0,0-1.742,1.7v11.881h3.483V931.66A1.741,1.741,0,0,0,343.911,929.961Z" transform="translate(-341.718 -924.419)" fill="#1f4788" fill-rule="evenodd"/>
      </g>
    </g>
    <path id="Path_6109" data-name="Path 6109" d="M-29.412-11.088a8.755,8.755,0,0,1,1.2-.5,13.689,13.689,0,0,1,1.512-.42q.816-.18,1.656-.288a12.451,12.451,0,0,1,1.584-.108,7.538,7.538,0,0,1,2.772.444A3.349,3.349,0,0,1-19-10.56a4.8,4.8,0,0,1,.576,2.5V0h-3.048V-7.536a3.173,3.173,0,0,0-.12-.876A1.885,1.885,0,0,0-22-9.156a1.88,1.88,0,0,0-.792-.5,3.917,3.917,0,0,0-1.3-.18,6.287,6.287,0,0,0-1.212.12,5.48,5.48,0,0,0-1.068.312V0h-3.048ZM-9.732.36A14.255,14.255,0,0,1-11.676.228a6.643,6.643,0,0,1-1.716-.456A3.086,3.086,0,0,1-14.6-1.116a2.275,2.275,0,0,1-.456-1.476v-14.16h3V-10.2l-.648-.96a3.3,3.3,0,0,1,1.116-.708,7.335,7.335,0,0,1,1.38-.408,6.491,6.491,0,0,1,1.176-.132,5.114,5.114,0,0,1,4.1,1.62A6.925,6.925,0,0,1-3.54-6.144a8.554,8.554,0,0,1-.5,3.156A5.026,5.026,0,0,1-5.4-1,5.077,5.077,0,0,1-7.368.048,8.743,8.743,0,0,1-9.732.36ZM-9.8-2.232a3.279,3.279,0,0,0,1.92-.492A2.627,2.627,0,0,0-6.9-4.068a5.936,5.936,0,0,0,.288-1.908,5.866,5.866,0,0,0-.36-2.232A2.663,2.663,0,0,0-8-9.492a3.067,3.067,0,0,0-1.656-.42,5.557,5.557,0,0,0-1.2.144,4.334,4.334,0,0,0-1.2.456v5.928a.845.845,0,0,0,.324.708,1.919,1.919,0,0,0,.84.348A5.965,5.965,0,0,0-9.8-2.232ZM2.172,0H-.852V-16.68H2.172ZM10.86.36A5.729,5.729,0,0,1,6.372-1.3,6.916,6.916,0,0,1,4.884-6.072q0-3.36,1.524-4.872a6.026,6.026,0,0,1,4.428-1.512,7.083,7.083,0,0,1,3.348.708,4.534,4.534,0,0,1,2,2.124,8.275,8.275,0,0,1,.672,3.552A6.708,6.708,0,0,1,15.3-1.3,5.805,5.805,0,0,1,10.86.36Zm-.024-2.5a2.848,2.848,0,0,0,1.716-.48,2.769,2.769,0,0,0,.972-1.368,6.3,6.3,0,0,0,.312-2.088A6.456,6.456,0,0,0,13.512-8.3a2.437,2.437,0,0,0-.984-1.272,3.173,3.173,0,0,0-1.692-.408,3.023,3.023,0,0,0-1.7.432,2.41,2.41,0,0,0-.936,1.3,7.012,7.012,0,0,0-.288,2.184,5.221,5.221,0,0,0,.684,2.916A2.5,2.5,0,0,0,10.836-2.136ZM24.612-4.968,21.132,0H17.868l5.28-6.96ZM30.348,0H26.7L17.988-12.1h3.648Zm-6.72-7.032L27.2-12.1h3.264l-5.4,7.128Z" transform="translate(372.753 35.8)" fill="#1f4788"/>
    <g id="Group_1079" data-name="Group 1079" transform="translate(390.516 38.407)">
      <g id="Group_21" data-name="Group 21">
        <rect id="Rectangle_4" data-name="Rectangle 4" width="13" height="6.78" rx="3.39" fill="#1f4788"/>
      </g>
      <path id="Path_6110" data-name="Path 6110" d="M-3.9-3.138h.521v.445a1.753,1.753,0,0,1,.34-.337,1.022,1.022,0,0,1,.592-.179.931.931,0,0,1,.6.185.965.965,0,0,1,.234.311A1.14,1.14,0,0,1-1.2-3.086a1.152,1.152,0,0,1,.533-.122A.872.872,0,0,1,.2-2.751a1.494,1.494,0,0,1,.123.662V0H-.227V-2.18A.508.508,0,0,0-.384-2.61a.62.62,0,0,0-.382-.117A.759.759,0,0,0-1.3-2.52a.913.913,0,0,0-.224.694V0h-.536V-2.048a1.064,1.064,0,0,0-.076-.466.465.465,0,0,0-.448-.22.773.773,0,0,0-.543.231,1.134,1.134,0,0,0-.245.838V0H-3.9Zm6.545-.07a1.431,1.431,0,0,1,.647.157,1.194,1.194,0,0,1,.478.406,1.4,1.4,0,0,1,.211.554,3.623,3.623,0,0,1,.047.691h-2.3a1.342,1.342,0,0,0,.226.766.755.755,0,0,0,.653.289.845.845,0,0,0,.659-.272.918.918,0,0,0,.2-.366h.519A1.092,1.092,0,0,1,3.847-.6a1.37,1.37,0,0,1-.259.347,1.229,1.229,0,0,1-.595.316,1.807,1.807,0,0,1-.431.047,1.321,1.321,0,0,1-.993-.426,1.659,1.659,0,0,1-.407-1.194,1.8,1.8,0,0,1,.41-1.228A1.353,1.353,0,0,1,2.644-3.208Zm.841,1.389a1.366,1.366,0,0,0-.149-.548.766.766,0,0,0-.724-.381A.8.8,0,0,0,2-2.486a.991.991,0,0,0-.261.667Z" transform="translate(6.733 5.017) rotate(0.352)" fill="#fff"/>
    </g>
    <path id="Path_6111" data-name="Path 6111" d="M5.5-4.368a2.055,2.055,0,0,1,1.23.726A2.061,2.061,0,0,1,7.188-2.3,2.114,2.114,0,0,1,6.474-.618,3.076,3.076,0,0,1,4.4,0H.768V-8.472H4.332a3.046,3.046,0,0,1,1.974.564A1.931,1.931,0,0,1,7-6.324a1.975,1.975,0,0,1-.414,1.3A1.925,1.925,0,0,1,5.5-4.368ZM2.46-4.92H3.984A1.45,1.45,0,0,0,4.95-5.2a1.007,1.007,0,0,0,.33-.81,1.035,1.035,0,0,0-.324-.816,1.466,1.466,0,0,0-1-.288H2.46ZM4.068-1.38A1.594,1.594,0,0,0,5.1-1.674a1.043,1.043,0,0,0,.36-.858,1.071,1.071,0,0,0-.366-.87,1.575,1.575,0,0,0-1.038-.306H2.46V-1.38Zm6.66-5.748v2.2h3v1.3h-3v2.28h3.36V0H9.036V-8.472h5.052v1.344ZM21.756-8.472v1.344h-2.34V0H17.724V-7.128H15.4V-8.472ZM28.512-1.7h-3.4l-.6,1.7H22.728l3.12-8.376H27.78L30.888,0H29.1Zm-.456-1.284L26.808-6.564,25.56-2.988Z" transform="translate(407 36)" fill="#a0a0a0"/>
  </g>
</svg>
