<svg xmlns="http://www.w3.org/2000/svg" width="54.771" height="72.198" viewBox="0 0 54.771 72.198">
  <g id="file-2" transform="translate(-56)">
    <path id="Path_6169" data-name="Path 6169" d="M110.044,10.5,100.3.731A2.574,2.574,0,0,0,98.535,0H58.49A2.49,2.49,0,0,0,56,2.49V69.709a2.49,2.49,0,0,0,2.49,2.49h49.792a2.49,2.49,0,0,0,2.49-2.49V12.256A2.49,2.49,0,0,0,110.044,10.5Zm-16.7,28.455a7.469,7.469,0,0,1-4.129,6.68l-5.829,2.915-5.829-2.915a7.469,7.469,0,0,1-4.129-6.68V24.9l9.958-3.734L93.344,24.9Z" transform="translate(0 0)" fill="#1f4788"/>
    <g id="Group_1092" data-name="Group 1092" transform="translate(62.224 6.224)">
      <path id="Path_6171" data-name="Path 6171" d="M96,40h2.49v2.49H96Z" transform="translate(-96 -40)" fill="#fff"/>
      <path id="Path_6172" data-name="Path 6172" d="M128,40h24.9v2.49H128Z" transform="translate(-123.021 -40.224)" fill="#fff"/>
      <path id="Path_6173" data-name="Path 6173" d="M96,72h29.875v2.49H96Z" transform="translate(-96 -64.224)" fill="#fff"/>
      <path id="Path_6176" data-name="Path 6176" d="M96,72h41.88v2.49H96Z" transform="translate(-96 -56.224)" fill="#fff"/>
      <path id="Path_6177" data-name="Path 6177" d="M96,72h41.88v2.49H96Z" transform="translate(-96 -48.224)" fill="#fff"/>
      <path id="Path_6178" data-name="Path 6178" d="M96,72h41.88v2.49H96Z" transform="translate(-96 -40.224)" fill="#fff"/>
      <path id="Path_6179" data-name="Path 6179" d="M96,72h41.88v2.49H96Z" transform="translate(-96 -32.224)" fill="#fff"/>
      <path id="Path_6180" data-name="Path 6180" d="M96,72h41.88v2.49H96Z" transform="translate(-96 -24.224)" fill="#fff"/>
      <path id="Path_6181" data-name="Path 6181" d="M96,72h41.88v2.49H96Z" transform="translate(-96 -16.224)" fill="#fff"/>
    </g>
    <g id="Group_1094" data-name="Group 1094">
      <path id="Path_6170" data-name="Path 6170" d="M177.958,136,168,139.734v14.056a7.469,7.469,0,0,0,4.129,6.68l5.829,2.915,5.829-2.915a7.469,7.469,0,0,0,4.129-6.68V139.734Z" transform="translate(-94.573 -114.838)" fill="#ef6c53"/>
      <path id="Path_6174" data-name="Path 6174" d="M192.12,196.7a1.245,1.245,0,0,1-.88-.365l-3.52-3.522,1.76-1.76,2.64,2.641,7.922-7.922,1.76,1.76-8.8,8.8A1.245,1.245,0,0,1,192.12,196.7Z" transform="translate(-111.224 -156.869)" fill="#fff"/>
    </g>
    <path id="Path_6175" data-name="Path 6175" d="M328,0V9.958a2.49,2.49,0,0,0,2.49,2.49h9.958V10.474a1.245,1.245,0,0,0-.365-.88L330.854.365a1.245,1.245,0,0,0-.88-.365Z" transform="translate(-229.677 0)" fill="#5885ce"/>
  </g>
</svg>
