<svg xmlns="http://www.w3.org/2000/svg" width="44" height="44" viewBox="0 0 44 44">
  <g id="Group_657" data-name="Group 657" transform="translate(-252 -1368)">
    <g id="Ellipse_27" data-name="Ellipse 27" transform="translate(252 1368)" fill="#4682b4" stroke="#4682b4" stroke-width="1">
      <circle cx="22" cy="22" r="22" stroke="none"/>
      <circle cx="22" cy="22" r="21.5" fill="none"/>
    </g>
    <g id="XMLID_801_" transform="translate(267.082 1380.223)">
      <path id="XMLID_802_" d="M8.377,99.73H5.184a.257.257,0,0,0-.257.257v10.259a.257.257,0,0,0,.257.257H8.377a.257.257,0,0,0,.257-.257V99.987A.257.257,0,0,0,8.377,99.73Z" transform="translate(-4.674 -94.289)" fill="#fff"/>
      <path id="XMLID_803_" d="M2.107.341a2.105,2.105,0,1,0,2.106,2.1A2.108,2.108,0,0,0,2.107.341Z" transform="translate(0)" fill="#fff"/>
      <path id="XMLID_804_" d="M112.553,94.761a3.751,3.751,0,0,0-2.806,1.178v-.666a.257.257,0,0,0-.257-.257h-3.058a.257.257,0,0,0-.257.257v10.259a.257.257,0,0,0,.257.257h3.186a.257.257,0,0,0,.257-.257v-5.076c0-1.71.465-2.377,1.657-2.377,1.3,0,1.4,1.068,1.4,2.465v4.988a.257.257,0,0,0,.257.257h3.188a.257.257,0,0,0,.257-.257V99.9C116.635,97.361,116.15,94.761,112.553,94.761Z" transform="translate(-100.728 -89.575)" fill="#fff"/>
    </g>
  </g>
</svg>
