<svg xmlns="http://www.w3.org/2000/svg" width="37.583" height="37.5" viewBox="0 0 37.583 37.5">
  <g id="XMLID_801_" transform="translate(0 -0.341)">
    <path id="XMLID_802_" d="M13.078,99.73H5.533a.606.606,0,0,0-.606.606v24.238a.606.606,0,0,0,.606.606h7.545a.606.606,0,0,0,.606-.606V100.336A.606.606,0,0,0,13.078,99.73Z" transform="translate(-4.33 -87.34)" fill="#1f4788"/>
    <path id="XMLID_803_" d="M4.979.341A4.974,4.974,0,1,0,9.953,5.314,4.982,4.982,0,0,0,4.979.341Z" transform="translate(0)" fill="#1f4788"/>
    <path id="XMLID_804_" d="M121.243,94.761a8.861,8.861,0,0,0-6.629,2.783V95.97a.606.606,0,0,0-.606-.606h-7.225a.606.606,0,0,0-.606.606v24.238a.606.606,0,0,0,.606.606h7.528a.606.606,0,0,0,.606-.606V108.215c0-4.041,1.1-5.615,3.915-5.615,3.068,0,3.312,2.524,3.312,5.823v11.784a.606.606,0,0,0,.606.606h7.531a.606.606,0,0,0,.606-.606v-13.3C130.887,100.9,129.741,94.761,121.243,94.761Z" transform="translate(-93.304 -82.973)" fill="#1f4788"/>
  </g>
</svg>
