<svg xmlns="http://www.w3.org/2000/svg" width="46.625" height="29.442" viewBox="0 0 46.625 29.442">
  <g id="medium" transform="translate(0 -54.73)">
    <path id="Path_6000" data-name="Path 6000" d="M79.774,204.96a2.929,2.929,0,1,0,2.929,2.928A2.932,2.932,0,0,0,79.774,204.96Z" transform="translate(-64.782 -126.646)" fill="#ffb817"/>
    <path id="Path_6001" data-name="Path 6001" d="M218.39,204.96a2.929,2.929,0,1,0,2.929,2.928A2.932,2.932,0,0,0,218.39,204.96Z" transform="translate(-181.637 -126.646)" fill="#ffb817"/>
    <path id="Path_6002" data-name="Path 6002" d="M252.789,108.434l-.013-3.729a1.552,1.552,0,0,0-1.552-1.546H248.9l-1.319,5.275Z" transform="translate(-208.711 -40.826)" fill="#ffb817"/>
    <path id="Path_6003" data-name="Path 6003" d="M38.908,56.618a1.552,1.552,0,0,0-1.515-1.888H13.072a1.551,1.551,0,0,0-1.515,1.215l-.3,1.345H7.952a1.552,1.552,0,1,0,0,3.1h2.617l-.733,3.3H4.112a1.552,1.552,0,1,0,0,3.1H9.147l-.733,3.3H1.552a1.552,1.552,0,1,0,0,3.1H7.724L6.437,78.986a1.551,1.551,0,0,0,1.515,1.888H8.973a6.031,6.031,0,0,1,12.039,0h9.722a6.043,6.043,0,0,1,3.54-5.129Z" fill="#ffb817"/>
    <path id="Path_6004" data-name="Path 6004" d="M244.831,153.182a1.549,1.549,0,0,0-.919-.6h-7.166l-1.281,5.125a6.038,6.038,0,0,1,5.806,5.637,1.551,1.551,0,0,0,1.215-1.041l2.56-7.719A1.552,1.552,0,0,0,244.831,153.182Z" transform="translate(-198.499 -82.486)" fill="#ffb817"/>
  </g>
</svg>
