<svg xmlns="http://www.w3.org/2000/svg" width="78.797" height="78.797" viewBox="0 0 78.797 78.797">
  <g id="fox" transform="translate(-0.001)">
    <path id="Path_6120" data-name="Path 6120" d="M39.753,25.069,31,21.3V63.868l13.158-11.82.981-19Z" transform="translate(-26.228 -18.021)" fill="#ccc"/>
    <path id="Path_6121" data-name="Path 6121" d="M381.916,25.612l-7.791,11.062,3.29,15.629,13.158,11.82V21.6Z" transform="translate(-316.546 -18.275)" fill="#a0a0a0"/>
    <path id="Path_6122" data-name="Path 6122" d="M56.9,20.592A31.128,31.128,0,0,0,33.77.554L31,0V3.278c3.494,8.172.914,2.141,13.158,30.749,4.655-4.183,1.961-1.761,13.3-11.958Z" transform="translate(-26.228)" fill="#6f6f6f"/>
    <path id="Path_6123" data-name="Path 6123" d="M332.785.554a31.128,31.128,0,0,0-23.131,20.038l-.554,1.477c11.334,10.2,8.642,7.775,13.3,11.958l13.159-30.7V0Z" transform="translate(-261.529)" fill="#6f6f6f"/>
    <path id="Path_6124" data-name="Path 6124" d="M123.1,134.851l-3.509,4.617h-7.572a16.177,16.177,0,0,0-16.16,16.16H91.24a16.177,16.177,0,0,0-16.16-16.16H67.6L64,134.851l3.648-5.125a20.355,20.355,0,0,1,2.216-2.586,20.849,20.849,0,0,1,12.558-6.048c.785-.046,1.477-.092,2.17-.092h17.914c.693,0,1.385.046,2.124.092a21.1,21.1,0,0,1,12.651,6.048,24.681,24.681,0,0,1,2.17,2.586Z" transform="translate(-54.149 -102.378)" fill="#a0a0a0"/>
    <path id="Path_6125" data-name="Path 6125" d="M285.549,134.851l-3.509,4.617h-7.572a16.177,16.177,0,0,0-16.16,16.16H256V121h8.957c.693,0,1.385.046,2.124.092a21.1,21.1,0,0,1,12.651,6.048,24.674,24.674,0,0,1,2.17,2.586Z" transform="translate(-216.601 -102.378)" fill="#6f6f6f"/>
    <path id="Path_6126" data-name="Path 6126" d="M78.508,231.315a11.715,11.715,0,0,1-5.679,7.526l-22.21,12.42L45.54,249l-6.141-3.37-.185-.092L33.028,249,28.18,251.26,5.97,238.84a11.544,11.544,0,0,1-3.832-16.806L9.85,211H20.931A20.758,20.758,0,0,1,39.4,222.45,20.758,20.758,0,0,1,57.867,211H68.948l7.713,11.035A11.6,11.6,0,0,1,78.508,231.315Z" transform="translate(0 -178.527)" fill="#f0eded"/>
    <path id="Path_6127" data-name="Path 6127" d="M295.109,231.315a11.715,11.715,0,0,1-5.679,7.526l-22.21,12.42L262.141,249,256,245.628V222.45A20.758,20.758,0,0,1,274.468,211h11.081l7.713,11.035A11.6,11.6,0,0,1,295.109,231.315Z" transform="translate(-216.601 -178.527)" fill="#ccc"/>
    <path id="Path_6128" data-name="Path 6128" d="M204.431,426.956a11.561,11.561,0,0,0-20.223,0l-1.108,1.985L194.319,435l11.219-6.064Z" transform="translate(-154.92 -356.208)" fill="#a0a0a0"/>
    <path id="Path_6129" data-name="Path 6129" d="M266.111,426.956l1.108,1.985L256,435V421A11.573,11.573,0,0,1,266.111,426.956Z" transform="translate(-216.601 -356.208)" fill="#6f6f6f"/>
    <path id="Path_6130" data-name="Path 6130" d="M117.518,283.343H112.9a6.933,6.933,0,0,0-6.926-6.926V271.8A11.556,11.556,0,0,1,117.518,283.343Z" transform="translate(-89.665 -229.97)" fill="#57555c"/>
    <path id="Path_6131" data-name="Path 6131" d="M335.592,283.343h-4.617A11.556,11.556,0,0,1,342.518,271.8v4.617A6.933,6.933,0,0,0,335.592,283.343Z" transform="translate(-280.037 -229.97)" fill="#3c3a41"/>
  </g>
</svg>
