<svg xmlns="http://www.w3.org/2000/svg" width="153.289" height="139.914" viewBox="0 0 153.289 139.914">
  <g id="transfer-2" transform="translate(-15.132 -18.916)">
    <ellipse id="Ellipse_62" data-name="Ellipse 62" cx="34.785" cy="34.787" rx="34.785" ry="34.787" transform="matrix(0.987, -0.16, 0.16, 0.987, 24.076, 30.536)" fill="#feda6f"/>
    <circle id="Ellipse_63" data-name="Ellipse 63" cx="28.035" cy="28.035" r="28.035" transform="matrix(0.987, -0.16, 0.16, 0.987, 31.818, 36.12)" fill="#efbe43"/>
    <ellipse id="Ellipse_64" data-name="Ellipse 64" cx="34.785" cy="34.787" rx="34.785" ry="34.787" transform="matrix(0.987, -0.16, 0.16, 0.987, 85.78, 90.161)" fill="#feda6f"/>
    <circle id="Ellipse_65" data-name="Ellipse 65" cx="28.035" cy="28.035" r="28.035" transform="matrix(0.987, -0.16, 0.16, 0.987, 93.522, 95.745)" fill="#efbe43"/>
    <path id="Path_6097" data-name="Path 6097" d="M117.488,58.865c-3.3-10.648-17.443-46.223-57.654-38.985,0,0,33.2.26,36.573,38.985H87.245l19.97,23.624,19.97-23.624Z" transform="translate(41.236 0)" fill="#ff6d62"/>
    <path id="Path_6098" data-name="Path 6098" d="M24.829,81.639c3.3,10.648,17.443,46.223,57.654,38.985,0,0-33.2-.26-36.573-38.985h9.163L35.1,58.016,15.132,81.639Z" transform="translate(0 36.067)" fill="#1f4788"/>
    <g id="bitcoin-logo" transform="translate(114.132 103.083)">
      <path id="Path_5519" data-name="Path 5519" d="M88.1,16.783a5.773,5.773,0,0,0-3.364-1.98,4.558,4.558,0,0,0,2.519-4.96,4.9,4.9,0,0,0-.7-2.2,4.4,4.4,0,0,0-1.586-1.5,8.732,8.732,0,0,0-2.173-.865A17.141,17.141,0,0,0,80.1,4.845V0h-2.96V4.71q-.769,0-2.345.038V0H71.833V4.845q-.635.019-1.865.019l-4.076-.019V8h2.134A1.527,1.527,0,0,1,69.738,9.3v5.518a1.953,1.953,0,0,1,.308.019h-.308V22.57a1.027,1.027,0,0,1-1.115.981H66.489l-.6,3.518h3.845q.365,0,1.057.009t1.038.01v4.9h2.961V27.145q.807.02,2.345.019V31.99H80.1v-4.9a23.016,23.016,0,0,0,2.8-.288,11.383,11.383,0,0,0,2.336-.664A6.3,6.3,0,0,0,87.1,25.011a5.308,5.308,0,0,0,1.24-1.711,7.274,7.274,0,0,0,.624-2.4A5.7,5.7,0,0,0,88.1,16.783ZM74.852,8.209q.135,0,.759-.01t1.038-.019q.413-.009,1.115.048a10.607,10.607,0,0,1,1.182.154A6.584,6.584,0,0,1,80,8.7a2.865,2.865,0,0,1,.923.538,2.67,2.67,0,0,1,.586.808,2.52,2.52,0,0,1,.241,1.125,2.675,2.675,0,0,1-.173.981,1.848,1.848,0,0,1-.519.74,5.258,5.258,0,0,1-.712.519,3.258,3.258,0,0,1-.932.356q-.567.135-.99.211a8.1,8.1,0,0,1-1.057.106q-.635.029-.961.039t-.894,0l-.663-.01v-5.9h0ZM82.936,21.3a2.733,2.733,0,0,1-.471.769,2.67,2.67,0,0,1-.76.576,6.513,6.513,0,0,1-.913.4,7.35,7.35,0,0,1-1.067.269q-.626.115-1.1.163T77.5,23.56q-.653.028-1.019.029t-.923-.01q-.558-.009-.711-.009v-6.5q.154,0,.913-.019T77,17.033q.481,0,1.327.058a11.336,11.336,0,0,1,1.423.173,9.353,9.353,0,0,1,1.259.356,3.651,3.651,0,0,1,1.106.586,2.885,2.885,0,0,1,.711.884,2.746,2.746,0,0,1,.106,2.211Z" transform="translate(-65.893)" fill="#ffdc66"/>
    </g>
    <g id="ethereum" transform="translate(53.911 40.58)">
      <path id="Path_5520" data-name="Path 5520" d="M9.648,270.984,0,266.848l9.648,15.194L19.3,266.848Zm0,0" transform="translate(0 -246.83)" fill="#ffde5b"/>
      <path id="Path_5521" data-name="Path 5521" d="M32.544,13.457,23.843,0l-8.71,13.472,8.71-3.68Zm0,0" transform="translate(-14.195)" fill="#ffde5b"/>
      <path id="Path_5522" data-name="Path 5522" d="M25.98,194.669l8.037,3.356,8.05-3.361-8.05-3.355Zm0,0" transform="translate(-24.37 -177.803)" fill="#ffde5b"/>
    </g>
  </g>
</svg>
