<svg id="money-transfer" xmlns="http://www.w3.org/2000/svg" width="151.551" height="151.551" viewBox="0 0 151.551 151.551">
  <g id="Group_1061" data-name="Group 1061">
    <g id="Group_1060" data-name="Group 1060">
      <path id="Path_6101" data-name="Path 6101" d="M4.889,19.555H68.442V40.221h4.889v-28A12.236,12.236,0,0,0,61.109,0H12.222A12.236,12.236,0,0,0,0,12.222v101.33H4.889Zm0-7.333a7.342,7.342,0,0,1,7.333-7.333H61.109a7.342,7.342,0,0,1,7.333,7.333v2.444H4.889Z" fill="#1f4788"/>
      <rect id="Rectangle_150" data-name="Rectangle 150" width="24" height="5" transform="translate(24.789 121.789)" fill="#1f4788"/>
      <path id="Path_6102" data-name="Path 6102" d="M0,380.222a12.236,12.236,0,0,0,12.222,12.222H61.109a12.236,12.236,0,0,0,12.222-12.222V368H0Zm4.889-7.333H68.442v7.333a7.342,7.342,0,0,1-7.333,7.333H12.222a7.342,7.342,0,0,1-7.333-7.333Z" transform="translate(0 -255.559)" fill="#1f4788"/>
      <path id="Path_6103" data-name="Path 6103" d="M317.109,48H268.222A12.236,12.236,0,0,0,256,60.222v7.333h68.442v94h4.889V60.222A12.236,12.236,0,0,0,317.109,48Zm7.333,14.666H260.889V60.222a7.342,7.342,0,0,1,7.333-7.333h48.887a7.342,7.342,0,0,1,7.333,7.333Z" transform="translate(-177.78 -33.334)" fill="#1f4788"/>
      <rect id="Rectangle_151" data-name="Rectangle 151" width="24" height="5" transform="translate(102.789 136.789)" fill="#1f4788"/>
      <path id="Path_6104" data-name="Path 6104" d="M260.889,361H256v33.888a12.236,12.236,0,0,0,12.222,12.222h48.887a12.236,12.236,0,0,0,12.222-12.222V382.666H260.889Zm63.554,26.555v7.333a7.342,7.342,0,0,1-7.333,7.333H268.222a7.342,7.342,0,0,1-7.333-7.333v-7.333Z" transform="translate(-177.78 -255.559)" fill="#1f4788"/>
      <path id="Path_6105" data-name="Path 6105" d="M376,174v-4.889h7.333V152L403.5,178.888l-20.166,26.888V188.666H376v-4.889h12.222v7.333l9.166-12.222-9.166-12.222V174Z" transform="translate(-261.115 -105.557)" fill="#359857"/>
      <path id="Path_6106" data-name="Path 6106" d="M57.5,174v-4.889H50.166V152L30,178.888l20.166,26.888V188.666H57.5v-4.889H45.277v7.333l-9.166-12.222,9.166-12.222V174Z" transform="translate(-20.834 -105.557)" fill="#359857"/>
      <rect id="Rectangle_152" data-name="Rectangle 152" width="5" height="5" transform="translate(116.789 111.789)" fill="#1f4788"/>
      <rect id="Rectangle_153" data-name="Rectangle 153" width="4" height="5" transform="translate(107.789 111.789)" fill="#1f4788"/>
      <rect id="Rectangle_154" data-name="Rectangle 154" width="5" height="5" transform="translate(97.789 111.789)" fill="#1f4788"/>
      <g id="Ellipse_66" data-name="Ellipse 66" transform="translate(43.789 38.789)" fill="#f1bf33" stroke="#ffdc66" stroke-width="5">
        <circle cx="34" cy="34" r="34" stroke="none"/>
        <circle cx="34" cy="34" r="31.5" fill="none"/>
      </g>
      <g id="Ellipse_67" data-name="Ellipse 67" transform="translate(55.789 51.789)" fill="#f1bf33" stroke="#ffdc66" stroke-width="2" stroke-dasharray="8">
        <circle cx="22" cy="22" r="22" stroke="none"/>
        <circle cx="22" cy="22" r="21" fill="none"/>
      </g>
      <rect id="Rectangle_155" data-name="Rectangle 155" width="5" height="4" transform="translate(48.789 29.789)" fill="#1f4788"/>
      <rect id="Rectangle_156" data-name="Rectangle 156" width="5" height="4" transform="translate(38.789 29.789)" fill="#1f4788"/>
      <rect id="Rectangle_157" data-name="Rectangle 157" width="4" height="4" transform="translate(29.789 29.789)" fill="#1f4788"/>
      <g id="bitcoin-logo" transform="translate(66.789 58.466)" opacity="0.128">
        <path id="Path_5519" data-name="Path 5519" d="M87.05,15.99A5.5,5.5,0,0,0,83.844,14.1a4.343,4.343,0,0,0,2.4-4.726,4.671,4.671,0,0,0-.669-2.1,4.2,4.2,0,0,0-1.512-1.429,8.32,8.32,0,0,0-2.07-.824,16.332,16.332,0,0,0-2.565-.412V0H76.609V4.488q-.733,0-2.235.037V0H71.553V4.616q-.6.018-1.777.018l-3.883-.018v3h2.033a1.455,1.455,0,0,1,1.63,1.246v5.257a1.861,1.861,0,0,1,.293.018h-.293V21.5a.978.978,0,0,1-1.062.934H66.461l-.568,3.352h3.664q.348,0,1.007.009t.989.009V30.48h2.821V25.864q.769.019,2.235.018v4.6H79.43V25.809a21.929,21.929,0,0,0,2.665-.275,10.846,10.846,0,0,0,2.226-.632A6.006,6.006,0,0,0,86.1,23.831a5.057,5.057,0,0,0,1.182-1.63,6.93,6.93,0,0,0,.595-2.29A5.426,5.426,0,0,0,87.05,15.99ZM74.429,7.821q.128,0,.724-.009t.989-.018q.394-.009,1.063.046a10.107,10.107,0,0,1,1.126.147,6.274,6.274,0,0,1,1.007.3,2.73,2.73,0,0,1,.879.513,2.544,2.544,0,0,1,.559.769A2.4,2.4,0,0,1,81,10.642a2.549,2.549,0,0,1-.165.934,1.76,1.76,0,0,1-.494.705,5.009,5.009,0,0,1-.678.495,3.1,3.1,0,0,1-.888.339q-.54.128-.943.2a7.721,7.721,0,0,1-1.007.1q-.6.027-.916.037t-.852,0l-.632-.009V7.821h0Zm7.7,12.474a2.6,2.6,0,0,1-.449.733,2.544,2.544,0,0,1-.724.549,6.206,6.206,0,0,1-.87.385,7,7,0,0,1-1.017.257q-.6.11-1.045.156t-1.071.073q-.623.027-.971.027t-.879-.009q-.532-.009-.678-.009V16.265q.146,0,.87-.018t1.181-.018q.458,0,1.264.055a10.8,10.8,0,0,1,1.356.164,8.911,8.911,0,0,1,1.2.339,3.479,3.479,0,0,1,1.053.559,2.749,2.749,0,0,1,.678.843,2.617,2.617,0,0,1,.1,2.107Z" transform="translate(-65.893)" fill="#f5f6fa"/>
      </g>
    </g>
  </g>
</svg>
