<svg id="cloud-computing" xmlns="http://www.w3.org/2000/svg" width="179.771" height="167" viewBox="0 0 179.771 167">
  <path id="Path_6019" data-name="Path 6019" d="M151.682,112.357H33.707a33.71,33.71,0,0,1-11.1-65.538,50.542,50.542,0,0,1,93.06-23.388A33.652,33.652,0,0,1,157.3,56.178c0,.185,0,.376-.005.562a28.091,28.091,0,0,1-5.612,55.616Zm0,0" fill="#cee0fd"/>
  <path id="Path_6020" data-name="Path 6020" d="M178.041,209.021A49.021,49.021,0,1,1,129.021,160,49.02,49.02,0,0,1,178.041,209.021Zm0,0" transform="translate(-51.911 -98.271)" fill="#ffb200"/>
  <path id="Path_6023" data-name="Path 6023" d="M192,32h8.913v8.913H192Zm0,0" transform="translate(-132.716 -5.922)" fill="#fff"/>
  <text id="_" data-name="!" transform="translate(63.771 139)" fill="#fff" font-size="80" font-family="Poppins-Medium, Poppins" font-weight="500"><tspan x="0" y="0">!</tspan></text>
</svg>
