<svg xmlns="http://www.w3.org/2000/svg" width="65.38" height="78.256" viewBox="0 0 65.38 78.256">
  <g id="Group_1093" data-name="Group 1093" transform="translate(-567.409 -845.035)">
    <g id="shield" transform="translate(526.229 849.035)">
      <path id="Path_6138" data-name="Path 6138" d="M101.4,0a2.49,2.49,0,0,1,2.49,2.49V43.947S99.905,65.92,74.013,72.2C48.121,65.92,44.138,43.947,44.138,43.947V2.49A2.49,2.49,0,0,1,46.628,0Z" fill="none" stroke="#1f4788" stroke-width="4"/>
      <path id="Path_6139" data-name="Path 6139" d="M104.345,97.39C84.6,92.043,80.067,76.341,79.449,73.752V35.31h49.792V73.755C128.613,76.42,124.13,92.038,104.345,97.39Z" transform="translate(-30.332 -30.331)" fill="#fff"/>
      <g id="key" transform="translate(76.711 10.519) rotate(25)">
        <path id="Path_6147" data-name="Path 6147" d="M54.865,2A10.671,10.671,0,0,1,65.107,12.22,10.55,10.55,0,0,1,58.076,22.5V44.225a2.345,2.345,0,0,1-2.346,2.346H53.384a2.345,2.345,0,0,1-2.346-2.346V39.534h2.346V34.842H51.038V30.15h2.346V25.459H51.038V22.5A10.551,10.551,0,0,1,54.865,2Zm-.308,14.07a4.692,4.692,0,1,0-4.692-4.692A4.692,4.692,0,0,0,54.557,16.075Z" transform="translate(-44 -2)" fill="#6f6f6f"/>
        <path id="Path_6150" data-name="Path 6150" d="M53.865,5A5.865,5.865,0,1,1,48,10.865,5.871,5.871,0,0,1,53.865,5Zm0,9.383a3.519,3.519,0,1,0-3.519-3.519A3.523,3.523,0,0,0,53.865,14.383Z" transform="translate(-43.308 -1.481)" fill="#464646"/>
      </g>
    </g>
    <g id="Group_1091" data-name="Group 1091" transform="translate(-1 -1.344)">
      <path id="Path_6165" data-name="Path 6165" d="M65.38,28.314,36.295,41.092a9.151,9.151,0,0,1-7.21,0L0,28.314V11.876c0-1.828,1.861-3.311,4.158-3.311H61.222c2.3,0,4.158,1.483,4.158,3.311Z" transform="translate(568.409 837.814)" fill="#2d589d"/>
      <path id="Path_6166" data-name="Path 6166" d="M221.968,110.721a5.053,5.053,0,1,1-5.053-5.053,5.054,5.054,0,0,1,5.053,5.053" transform="translate(383.677 750.652)" fill="#d7e5fc"/>
    </g>
    <path id="Path_6168" data-name="Path 6168" d="M568.374,890.209l.407,1.675,4.072-.317-.534-1.754Z" transform="translate(0 3)" fill="#1c458a"/>
  </g>
</svg>
