<svg xmlns="http://www.w3.org/2000/svg" width="40" height="40" viewBox="0 0 40 40">
  <g id="Group_318" data-name="Group 318" transform="translate(-1222.001 -17)">
    <circle id="Ellipse_7" data-name="Ellipse 7" cx="20" cy="20" r="20" transform="translate(1222.001 17)" fill="#f5f6fa"/>
    <g id="user" transform="translate(1230.977 24.977)">
      <g id="Group_317" data-name="Group 317">
        <path id="Path_5511" data-name="Path 5511" d="M18.957,14.358a11.062,11.062,0,0,0-4.22-2.647,6.42,6.42,0,1,0-7.265,0A11.123,11.123,0,0,0,0,22.21H1.735a9.37,9.37,0,1,1,18.74,0H22.21A11.033,11.033,0,0,0,18.957,14.358ZM11.1,11.1A4.685,4.685,0,1,1,15.79,6.42,4.69,4.69,0,0,1,11.1,11.1Z" transform="translate(0)" fill="#1f4788"/>
      </g>
    </g>
  </g>
</svg>
