<svg xmlns="http://www.w3.org/2000/svg" width="21.218" height="24.212" viewBox="0 0 21.218 24.212">
  <g id="refresh" transform="translate(-32.08 0.25)">
    <g id="Group_691" data-name="Group 691" transform="translate(32.33)">
      <path id="Path_5624" data-name="Path 5624" d="M42.689,2.964a10.489,10.489,0,0,0-7.11,2.865l.082-4.9a.917.917,0,0,0-.9-.932h-.016a.917.917,0,0,0-.916.9l-.122,7.334a.917.917,0,0,0,.933.932l7.15-.122a.917.917,0,0,0-.016-1.833h-.016L36.7,7.3a8.788,8.788,0,0,1,5.986-2.5,8.647,8.647,0,0,1,8.525,8.525,8.663,8.663,0,0,1-8.525,8.556c-5.563,0-8.525-4.969-8.525-8.556a.917.917,0,0,0-1.833,0,10.359,10.359,0,1,0,20.718,0A10.506,10.506,0,0,0,42.689,2.964Z" transform="translate(-32.33)" fill="#fff" stroke="#fff" stroke-width="0.5"/>
    </g>
  </g>
</svg>
