<svg xmlns="http://www.w3.org/2000/svg" width="15.559" height="17" viewBox="0 0 15.559 17">
  <g id="Group_416" data-name="Group 416" transform="translate(0.5 0.5)">
    <g id="Group_410" data-name="Group 410">
      <g id="share-2">
        <g id="Group_409" data-name="Group 409">
          <g id="Group_408" data-name="Group 408">
            <path id="Path_5574" data-name="Path 5574" d="M34.985,10.752a2.62,2.62,0,0,0-2.062,1l-4.815-2.78a2.615,2.615,0,0,0,0-1.952l4.815-2.78A2.617,2.617,0,1,0,32.55,3.6L27.735,6.38a2.624,2.624,0,1,0,0,3.24L32.55,12.4a2.623,2.623,0,1,0,2.435-1.648Zm0-10.008a1.88,1.88,0,1,1-1.88,1.88A1.882,1.882,0,0,1,34.985.744ZM25.673,9.88A1.88,1.88,0,1,1,27.553,8,1.882,1.882,0,0,1,25.673,9.88Zm9.312,5.376a1.88,1.88,0,1,1,1.88-1.88A1.882,1.882,0,0,1,34.985,15.256Z" transform="translate(-23.049)" fill="#1f4788" stroke="#1f4788" stroke-width="1"/>
          </g>
        </g>
      </g>
    </g>
  </g>
</svg>
