<svg xmlns="http://www.w3.org/2000/svg" width="22.839" height="25" viewBox="0 0 22.839 25">
  <g id="Group_416" data-name="Group 416" transform="translate(7.5 1.5)">
    <g id="Group_410" data-name="Group 410" transform="translate(-7 -1)">
      <g id="share-2">
        <g id="Group_409" data-name="Group 409">
          <g id="Group_408" data-name="Group 408">
            <path id="Path_5574" data-name="Path 5574" d="M40.952,16.129a3.93,3.93,0,0,0-3.093,1.506l-7.223-4.17a3.922,3.922,0,0,0,0-2.928l7.223-4.17A3.925,3.925,0,1,0,37.3,5.4L30.077,9.57a3.936,3.936,0,1,0,0,4.86L37.3,18.6a3.935,3.935,0,1,0,3.652-2.471Zm0-15.013a2.82,2.82,0,1,1-2.82,2.82A2.823,2.823,0,0,1,40.952,1.116ZM26.985,14.82A2.82,2.82,0,1,1,29.8,12,2.823,2.823,0,0,1,26.985,14.82Zm13.968,8.064a2.82,2.82,0,1,1,2.82-2.82A2.823,2.823,0,0,1,40.952,22.884Z" transform="translate(-23.049 0)" fill="#eaf2ff" stroke="#eaf2ff" stroke-width="1"/>
          </g>
        </g>
      </g>
    </g>
  </g>
</svg>
