<svg xmlns="http://www.w3.org/2000/svg" width="51.198" height="24.538" viewBox="0 0 51.198 24.538">
  <path id="slow" d="M49.385,83.585a1.8,1.8,0,0,0-1.446,2.892l-2.615,4.486a6.421,6.421,0,0,0-1,.065V87.066a1.812,1.812,0,1,0-1.41,0v4.287a30.642,30.642,0,0,0-7.769,4.154c.446-.743,1.8-3.438-2.349-4.011A12.261,12.261,0,0,0,8.418,93.4c0,.414.022.821.061,1.224h0S2.9,96.971,7.392,99.456a59.71,59.71,0,0,0-5.68,3.678s-4.378,2.548.865,2.534H35.251s3.4.014,6.436-4.428c3.36-4.918,7.9-5.353,7.9-7.41,0-1.528-1.343-2.336-2.744-2.674l2.315-3.971a1.973,1.973,0,0,0,.228.022,1.811,1.811,0,1,0,0-3.623Z" transform="translate(0.001 -81.13)" fill="#ff766c"/>
</svg>
