<svg id="twitter-black-shape" xmlns="http://www.w3.org/2000/svg" width="20.18" height="16.39" viewBox="0 0 20.18 16.39">
  <path id="Path_27" data-name="Path 27" d="M20.18,44.205a8.253,8.253,0,0,1-2.382.64,4.016,4.016,0,0,0,1.818-2.279,8.119,8.119,0,0,1-2.625,1,4.146,4.146,0,0,0-5.948-.1,3.986,3.986,0,0,0-1.21,2.926,4.59,4.59,0,0,0,.1.948,11.525,11.525,0,0,1-4.757-1.274,11.726,11.726,0,0,1-3.771-3.054,4.145,4.145,0,0,0-.064,4.059,4.132,4.132,0,0,0,1.345,1.472,4.1,4.1,0,0,1-1.87-.525v.051A4,4,0,0,0,1.76,50.7a4.069,4.069,0,0,0,2.375,1.428,4.285,4.285,0,0,1-1.088.141,5.276,5.276,0,0,1-.781-.064,4.145,4.145,0,0,0,3.867,2.868A8.1,8.1,0,0,1,1,56.843a8.806,8.806,0,0,1-1-.051A11.486,11.486,0,0,0,6.35,58.649a12.084,12.084,0,0,0,4.136-.7,10.512,10.512,0,0,0,3.3-1.87,12.511,12.511,0,0,0,2.362-2.7A12.02,12.02,0,0,0,17.631,50.2a11.755,11.755,0,0,0,.487-3.323q0-.359-.013-.538A8.662,8.662,0,0,0,20.18,44.205Z" transform="translate(0.001 -42.259)" fill="#1f4788"/>
</svg>
