<svg xmlns="http://www.w3.org/2000/svg" width="43.943" height="35.689" viewBox="0 0 43.943 35.689">
  <g id="twitter-black-shape" transform="translate(0.001 -42.259)">
    <path id="Path_27" data-name="Path 27" d="M43.943,46.5a17.97,17.97,0,0,1-5.186,1.395,8.745,8.745,0,0,0,3.96-4.963A17.678,17.678,0,0,1,37,45.1a9.028,9.028,0,0,0-12.952-.209,8.68,8.68,0,0,0-2.635,6.371,10,10,0,0,0,.223,2.063,25.1,25.1,0,0,1-10.359-2.774A25.533,25.533,0,0,1,3.066,43.9a9.025,9.025,0,0,0-.139,8.839,9,9,0,0,0,2.928,3.206,8.935,8.935,0,0,1-4.071-1.143v.112a8.7,8.7,0,0,0,2.049,5.73,8.861,8.861,0,0,0,5.172,3.109,9.331,9.331,0,0,1-2.37.306,11.489,11.489,0,0,1-1.7-.139,9.026,9.026,0,0,0,8.421,6.246A17.634,17.634,0,0,1,2.174,74.017,19.175,19.175,0,0,1,0,73.906a25.012,25.012,0,0,0,13.83,4.043,26.313,26.313,0,0,0,9.005-1.519,22.89,22.89,0,0,0,7.194-4.071,27.242,27.242,0,0,0,5.144-5.869,26.172,26.172,0,0,0,3.221-6.929,25.6,25.6,0,0,0,1.059-7.236q0-.781-.028-1.171A18.861,18.861,0,0,0,43.943,46.5Z" fill="#1f4788"/>
  </g>
</svg>
