<svg xmlns="http://www.w3.org/2000/svg" width="44" height="44" viewBox="0 0 44 44">
  <g id="Group_486" data-name="Group 486" transform="translate(-252 -1437)">
    <g id="Ellipse_28" data-name="Ellipse 28" transform="translate(252 1437)" fill="#21b8ff" stroke="#04b7ff" stroke-width="1">
      <circle cx="22" cy="22" r="22" stroke="none"/>
      <circle cx="22" cy="22" r="21.5" fill="none"/>
    </g>
    <g id="twitter-black-shape" transform="translate(264.001 1408.563)">
      <path id="Path_27" data-name="Path 27" d="M22,44.381a9,9,0,0,1-2.6.7,4.378,4.378,0,0,0,1.982-2.485,8.851,8.851,0,0,1-2.862,1.089,4.52,4.52,0,0,0-6.484-.1,4.346,4.346,0,0,0-1.319,3.19,5,5,0,0,0,.112,1.033,12.564,12.564,0,0,1-5.186-1.389,12.783,12.783,0,0,1-4.111-3.329,4.518,4.518,0,0,0-.07,4.425,4.5,4.5,0,0,0,1.466,1.605A4.473,4.473,0,0,1,.892,48.54V48.6a4.357,4.357,0,0,0,1.026,2.869,4.436,4.436,0,0,0,2.589,1.556,4.671,4.671,0,0,1-1.187.153,5.752,5.752,0,0,1-.852-.069,4.519,4.519,0,0,0,4.216,3.127,8.828,8.828,0,0,1-5.6,1.926A9.6,9.6,0,0,1,0,58.1a12.522,12.522,0,0,0,6.924,2.024,13.174,13.174,0,0,0,4.508-.761,11.46,11.46,0,0,0,3.6-2.038,13.638,13.638,0,0,0,2.575-2.938,13.1,13.1,0,0,0,1.612-3.469,12.815,12.815,0,0,0,.53-3.623q0-.391-.014-.586A9.443,9.443,0,0,0,22,44.381Z" fill="#fff"/>
    </g>
  </g>
</svg>
