<svg xmlns="http://www.w3.org/2000/svg" width="18.333" height="18" viewBox="0 0 18.333 18">
  <g id="up-arrow" transform="translate(-12 -12)">
    <path id="Path_6005" data-name="Path 6005" d="M21.565,14.148l3.019-3.019V20.5a.917.917,0,1,0,1.833,0V11.13l3.019,3.019a.917.917,0,0,0,1.3-1.3L26.148,8.269a.916.916,0,0,0-1.3,0l-4.583,4.583a.917.917,0,0,0,1.3,1.3Z" transform="translate(-4.333 4)" fill="#1f4788"/>
    <path id="Path_6006" data-name="Path 6006" d="M29.417,40a.917.917,0,0,0-.917.917v3.667a.918.918,0,0,1-.917.917H14.75a.918.918,0,0,1-.917-.917V40.917a.917.917,0,1,0-1.833,0v3.667a2.753,2.753,0,0,0,2.75,2.75H27.583a2.753,2.753,0,0,0,2.75-2.75V40.917A.917.917,0,0,0,29.417,40Z" transform="translate(0 -17.333)" fill="#1f4788"/>
  </g>
</svg>
