<svg xmlns="http://www.w3.org/2000/svg" width="156.758" height="151.126" viewBox="0 0 156.758 151.126">
  <g id="Group_1062" data-name="Group 1062" transform="translate(-278.677 -117.423)">
    <g id="Polygon_21" data-name="Polygon 21" transform="translate(331.177 117.423) rotate(30)" fill="#fff" stroke-linecap="round" stroke-linejoin="round">
      <path d="M 84.49642181396484 104 L 35.89072799682617 104 C 32.67428207397461 104 29.68243408203125 102.2665405273438 28.0827579498291 99.47610473632812 L 3.718696117401123 56.97610855102539 C 2.135911464691162 54.21515274047852 2.135911464691162 50.78486251831055 3.718696117401123 48.02389144897461 L 28.08277320861816 5.523892402648926 C 29.68244934082031 2.733461618423462 32.67428207397461 1 35.89074325561523 1 L 84.49642181396484 1 C 87.71285247802734 1 90.70469665527344 2.733461618423462 92.30440521240234 5.523907661437988 L 116.6684646606445 48.02389144897461 C 118.2512359619141 50.78486251831055 118.2512359619141 54.21513748168945 116.6684646606445 56.97610855102539 L 92.30440521240234 99.47610473632812 C 90.70469665527344 102.2665405273438 87.71285247802734 104 84.49642181396484 104 Z" stroke="none"/>
      <path d="M 35.89073944091797 2 C 33.03166961669922 2 30.37225341796875 3.540847778320312 28.95030975341797 6.021232604980469 L 4.58624267578125 48.5212516784668 C 3.1793212890625 50.97541809082031 3.1793212890625 54.02456665039062 4.58624267578125 56.4787483215332 L 28.95028686523438 98.97875213623047 C 30.37223815917969 101.4591522216797 33.03165435791016 103 35.89072418212891 103 L 84.49640655517578 103 C 87.35546875 103 90.014892578125 101.4591522216797 91.43685913085938 98.97875213623047 L 115.8009033203125 56.4787483215332 C 117.2078094482422 54.02456665039062 117.2078094482422 50.97541809082031 115.8009033203125 48.52123260498047 L 91.43685913085938 6.021247863769531 C 90.01490783691406 3.540847778320312 87.35546875 2 84.49640655517578 2 L 35.89073944091797 2 M 35.89073944091797 0 L 84.49640655517578 0 C 88.08002471923828 0 91.38965606689453 1.917579650878906 93.17195892333984 5.02655029296875 L 117.536003112793 47.52655029296875 C 119.3019561767578 50.60703277587891 119.3019561767578 54.39294815063477 117.536003112793 57.47343444824219 L 93.17195892333984 99.97343444824219 C 91.38965606689453 103.0823974609375 88.08002471923828 105 84.49640655517578 105 L 35.89072418212891 105 C 32.30712127685547 105 28.99747467041016 103.0823974609375 27.21518707275391 99.97343444824219 L 2.851142883300781 57.47343444824219 C 1.085174560546875 54.39294815063477 1.085174560546875 50.60703277587891 2.851142883300781 47.52655029296875 L 27.2152099609375 5.02655029296875 C 28.99748992919922 1.917579650878906 32.30713653564453 0 35.89073944091797 0 Z" stroke="none" fill="#1f4788"/>
    </g>
    <g id="Polygon_22" data-name="Polygon 22" transform="translate(332.047 120.423) rotate(30)" fill="#eaf2ff" stroke-linecap="round" stroke-linejoin="round">
      <path d="M 81.05678558349609 99.5 L 34.74418258666992 99.5 C 31.70642852783203 99.5 28.88079833984375 97.86284637451172 27.36998176574707 95.22743225097656 L 4.152459144592285 54.72743225097656 C 2.657628297805786 52.1198616027832 2.657628297805786 48.8801383972168 4.152474403381348 46.27256774902344 L 27.36998176574707 5.772569179534912 C 28.88081359863281 3.13715386390686 31.70644378662109 1.5 34.74419784545898 1.5 L 81.05678558349609 1.5 C 84.09453582763672 1.5 86.920166015625 3.13715386390686 88.43099975585938 5.772569179534912 L 111.6485214233398 46.27256774902344 C 113.1433486938477 48.8801383972168 113.1433486938477 52.1198616027832 111.6485061645508 54.72743225097656 L 88.43099975585938 95.22743225097656 C 86.92018127441406 97.86284637451172 84.09455108642578 99.5 81.05678558349609 99.5 Z" stroke="none"/>
      <path d="M 34.74420928955078 3 C 32.24252319335938 3 29.91551971435547 4.348251342773438 28.67132568359375 6.518585205078125 L 5.453788757324219 47.01858520507812 C 4.222740173339844 49.16600036621094 4.222740173339844 51.833984375 5.453804016113281 53.98139953613281 L 28.67132568359375 94.48139953613281 C 29.91551971435547 96.65174865722656 32.24250793457031 98 34.74418640136719 98 L 81.05677795410156 98 C 83.5584716796875 98 85.88545227050781 96.65174865722656 87.129638671875 94.48139953613281 L 110.3471755981445 53.98141479492188 C 111.5782241821289 51.83399963378906 111.5782241821289 49.16600036621094 110.3471755981445 47.01858520507812 L 87.129638671875 6.518585205078125 C 85.88545227050781 4.348251342773438 83.5584716796875 3 81.05679321289062 3 L 34.74420928955078 3 M 34.74420928955078 0 L 81.05679321289062 0 C 84.64038848876953 0 87.95002746582031 1.917579650878906 89.73230743408203 5.02655029296875 L 112.949836730957 45.52655029296875 C 114.7157897949219 48.60705184936523 114.7157897949219 52.39296722412109 112.949836730957 55.47344970703125 L 89.73230743408203 95.97343444824219 C 87.95004272460938 99.0823974609375 84.64038848876953 101 81.05677795410156 101 L 34.74418640136719 101 C 31.16059112548828 101 27.85093688964844 99.0823974609375 26.06865692138672 95.97343444824219 L 2.851142883300781 55.47343444824219 C 1.085174560546875 52.39294815063477 1.085174560546875 48.60703277587891 2.851142883300781 45.52655029296875 L 26.06865692138672 5.02655029296875 C 27.85095977783203 1.917579650878906 31.16059112548828 0 34.74420928955078 0 Z" stroke="none" fill="#fff"/>
    </g>
    <g id="user-2" transform="translate(330.484 161.704)">
      <circle id="Ellipse_12" data-name="Ellipse 12" cx="14.686" cy="14.686" r="14.686" transform="translate(11.932)" fill="#a0a0a0"/>
      <path id="Path_5513" data-name="Path 5513" d="M47.243,150a26.618,26.618,0,0,0-26.618,26.618H73.862A26.618,26.618,0,0,0,47.243,150Z" transform="translate(-20.625 -113.285)" fill="#a0a0a0"/>
    </g>
  </g>
</svg>
