<svg xmlns="http://www.w3.org/2000/svg" width="230" height="270" viewBox="0 0 230 270">
  <g id="Group_1059" data-name="Group 1059" transform="translate(-220 -154)">
    <rect id="Rectangle_149" data-name="Rectangle 149" width="230" height="270" rx="20" transform="translate(220 154)" fill="#fff"/>
    <g id="user" transform="translate(252 206)">
      <g id="Group_317" data-name="Group 317">
        <path id="Path_5511" data-name="Path 5511" d="M142.02,107.56a82.874,82.874,0,0,0-31.614-19.829,48.1,48.1,0,1,0-54.426,0A83.325,83.325,0,0,0,0,166.387H13a70.194,70.194,0,1,1,140.389,0h13A82.651,82.651,0,0,0,142.02,107.56ZM83.193,83.193a35.1,35.1,0,1,1,35.1-35.1A35.137,35.137,0,0,1,83.193,83.193Z" transform="translate(0)" fill="#a0a0a0"/>
      </g>
    </g>
  </g>
</svg>
