<svg xmlns="http://www.w3.org/2000/svg" width="44" height="44" viewBox="0 0 44 44">
  <g id="Group_486" data-name="Group 486" transform="translate(-252 -1437)">
    <g id="Ellipse_28" data-name="Ellipse 28" transform="translate(252 1437)" fill="#f14336" stroke="#f14336" stroke-width="1">
      <circle cx="22" cy="22" r="22" stroke="none"/>
      <circle cx="22" cy="22" r="21.5" fill="none"/>
    </g>
    <g id="XMLID_822_" transform="translate(262 1404.083)">
      <path id="XMLID_823_" d="M23.99,47.425c-.9-1.071-2.565-1.508-5.742-1.508H6.715c-3.25,0-4.942.465-5.839,1.605C0,48.634,0,50.273,0,52.54v4.322c0,4.393,1.038,6.623,6.715,6.623H18.248c2.755,0,4.282-.386,5.27-1.331,1.013-.969,1.445-2.552,1.445-5.292V52.54C24.962,50.149,24.895,48.5,23.99,47.425ZM16.026,55.3l-5.237,2.737a.805.805,0,0,1-1.178-.714V51.864a.805.805,0,0,1,1.176-.715l5.237,2.719a.805.805,0,0,1,0,1.428Z" fill="#fff"/>
    </g>
  </g>
</svg>
