<svg xmlns="http://www.w3.org/2000/svg" width="52.575" height="37" viewBox="0 0 52.575 37">
  <g id="XMLID_822_" transform="translate(0 -45.917)">
    <path id="XMLID_823_" d="M50.525,49.093c-1.9-2.256-5.4-3.176-12.093-3.176H14.142c-6.845,0-10.408.98-12.3,3.381C0,51.64,0,55.091,0,59.866v9.1C0,78.22,2.187,82.917,14.142,82.917H38.432c5.8,0,9.018-.812,11.1-2.8,2.133-2.042,3.044-5.375,3.044-11.146v-9.1C52.575,54.83,52.432,51.359,50.525,49.093ZM33.753,65.674l-11.03,5.765a1.7,1.7,0,0,1-2.482-1.5V58.443a1.7,1.7,0,0,1,2.478-1.5l11.03,5.728a1.7,1.7,0,0,1,0,3.008Z" fill="#1f4788"/>
  </g>
</svg>
